<svg width="48" height="40" viewBox="0 0 48 40" fill="none" xmlns="http://www.w3.org/2000/svg">
<path d="M14.3276 34.6462C14.6468 34.0661 14.9489 33.5238 15.2441 32.9816C15.3161 32.847 15.3985 32.8262 15.5427 32.8746C17.1044 33.403 18.1342 34.9053 18.0552 36.5491C17.9797 38.155 16.8092 39.5295 15.2063 39.9025C13.624 40.2686 11.8975 39.4121 11.2041 37.9616C10.703 36.9152 10.7613 35.8826 11.0977 34.812C11.6949 32.9057 12.6183 31.1858 13.9397 29.6939C15.2475 28.2158 16.8058 27.0761 18.6113 26.2784C18.7039 26.2369 18.7932 26.1886 18.9133 26.1299C18.4911 25.9192 18.0861 25.75 17.712 25.5221C17.0495 25.118 16.4008 24.6898 15.7555 24.2581C15.6319 24.1752 15.553 24.1441 15.4088 24.2304C12.6251 25.933 10.4867 28.24 9.02796 31.172C8.13553 32.9644 7.58634 34.8604 7.36667 36.8565C7.17789 38.5625 5.59211 39.9474 3.88277 39.9854C2.15626 40.0234 0.652862 38.8215 0.258135 37.1846C-0.280755 34.9294 1.42859 32.7123 3.73174 32.7261C4.12303 32.7261 4.51433 32.8262 4.90219 32.8919C4.95711 32.9022 5.04292 33.0127 5.02919 33.0576C4.88846 33.6585 4.734 34.256 4.59328 34.8086C4.2363 34.7706 3.8965 34.6842 3.56698 34.7119C2.75007 34.7775 2.09448 35.5752 2.1288 36.4075C2.16313 37.264 2.88737 37.9823 3.74547 38.01C4.55895 38.0376 5.32438 37.3538 5.42049 36.5319C5.70195 34.1282 6.39529 31.8523 7.56232 29.7319C7.91585 29.0895 8.30028 28.461 8.68472 27.8048C5.04979 23.7677 3.17226 19.0087 3.10361 13.5107H5.07381C5.13216 18.3664 6.76256 22.5969 9.91695 26.2128C10.3872 25.7569 10.8265 25.3079 11.2865 24.8866C13.799 22.5693 16.7097 21.029 20.0494 20.3072C21.7245 19.9446 23.4166 19.7927 25.1191 19.9032C27.3982 20.0517 29.595 20.5628 31.6819 21.5194C32.1453 21.7301 32.1487 21.7266 32.4988 21.3468C33.4633 20.3003 34.1944 19.1054 34.7127 17.7793C35.3409 16.1699 35.6052 14.4984 35.4816 12.7751C35.2859 10.0779 34.2802 7.72263 32.4542 5.73686C30.4703 3.5715 28.0024 2.3455 25.0985 2.04505C23.0665 1.83438 21.1032 2.16592 19.2531 3.03621C16.2978 4.42797 14.2418 6.6693 13.1503 9.76711C12.1892 12.4954 12.2819 15.2237 13.3528 17.9036C13.6686 18.6979 14.1182 19.437 14.5198 20.2313C14.0153 20.5248 13.4558 20.8494 12.8963 21.1741C9.95471 17.1266 9.23734 10.0917 13.7544 4.78023C18.4431 -0.731581 26.5093 -1.58805 32.1727 2.79101C34.191 4.35199 35.6704 6.33086 36.5834 8.72415C37.493 11.1105 37.7024 13.566 37.2355 16.0732C36.7653 18.5908 35.6532 20.7976 33.9267 22.7282C35.4644 23.6986 36.8099 24.8555 38.0284 26.2128C41.1966 22.5624 42.8029 18.3491 42.8716 13.5211H44.8383C44.7731 18.988 42.9093 23.7297 39.2984 27.7668C39.6932 28.4265 40.1016 29.0585 40.4586 29.7181C41.4403 31.5208 42.1061 33.441 42.4391 35.4716C42.5077 35.8895 42.5455 36.3177 42.6313 36.7322C42.7823 37.4574 43.4894 38.0203 44.2205 38.0203C44.9859 38.0203 45.669 37.4712 45.8406 36.7011C45.9779 36.0829 45.7857 35.5511 45.3326 35.1366C44.8624 34.7084 44.3063 34.5703 43.6885 34.8017C43.6095 34.8327 43.5237 34.8535 43.4448 34.8776C43.2903 34.2664 43.1324 33.6793 42.9917 33.0853C42.9814 33.0335 43.0466 32.9229 43.1016 32.9057C45.2777 32.2046 47.4573 33.5826 47.7937 35.7617C48.0957 37.6957 46.9459 39.4259 45.0855 39.8921C42.9642 40.4274 40.8602 38.9079 40.6336 36.7184C40.4517 34.9501 39.954 33.2614 39.2161 31.6486C38.3991 29.8666 37.3111 28.2711 35.9381 26.8793C34.9427 25.8674 33.8375 24.9868 32.6224 24.2512C32.4748 24.1614 32.3855 24.1752 32.2551 24.2753C30.968 25.2803 29.5504 26.0401 27.9886 26.5167C26.8044 26.8758 25.5928 27.1072 24.3468 27.1038C21.7862 27.1038 19.4316 27.7703 17.3447 29.2829C15.6868 30.4813 14.3928 32.0009 13.5725 33.8899C13.2636 34.6013 13.0199 35.3473 12.8276 36.1002C12.632 36.8669 13.1194 37.6232 13.902 37.9167C14.6056 38.1826 15.4466 37.8787 15.8379 37.2295C16.5106 36.114 15.728 34.8431 14.6331 34.7153C14.5541 34.705 14.4786 34.6877 14.331 34.6601L14.3276 34.6462ZM30.4325 23.1184C26.1385 21.4089 21.8789 21.4055 17.585 23.1219C21.2062 25.7362 26.6465 25.8501 30.4325 23.1184Z" fill="white"/>
<path d="M33.6418 34.5565C33.2437 34.7429 32.8592 34.8535 32.5606 35.0745C31.9565 35.52 31.7849 36.2936 32.0663 36.9843C32.3238 37.6094 33.048 38.0687 33.6899 38.01C34.4381 37.9409 35.0663 37.4194 35.1864 36.6873C35.2379 36.3592 35.2001 35.9966 35.1109 35.6719C34.6235 33.8796 33.7688 32.2875 32.5126 30.913C31.5549 29.8631 30.4462 29.0136 29.1865 28.3643C29.1248 28.3332 29.0664 28.2987 29.0046 28.2607C29.7254 27.9326 30.4291 27.6045 31.143 27.2903C31.2014 27.2626 31.3112 27.3006 31.3764 27.3421C32.9965 28.4161 34.3352 29.7733 35.3786 31.4207C36.1784 32.6881 36.755 34.0522 37.112 35.5131C37.6131 37.5714 36.1749 39.6815 34.0777 39.9405C32.0972 40.1857 30.3639 38.9079 30.0172 36.9428C29.7083 35.2126 30.8135 33.3961 32.492 32.8884C32.5675 32.8642 32.7151 32.8953 32.746 32.9506C33.0617 33.4928 33.3638 34.0419 33.6487 34.5565H33.6418Z" fill="white"/>
</svg>
