<svg width="54" height="18" viewBox="0 0 54 18" fill="none" xmlns="http://www.w3.org/2000/svg">
<g clip-path="url(#clip0_7833_8120)">
<path fill-rule="evenodd" clip-rule="evenodd" d="M33.5015 13.7943C30.3641 16.2084 25.8173 17.5 21.8969 17.5C16.4051 17.5 11.4641 15.3792 7.72193 11.8484C7.43033 11.572 7.68953 11.1941 8.04593 11.4084C12.0797 13.862 17.0747 15.3341 22.2263 15.3341C25.7039 15.3341 29.5271 14.5839 33.0425 13.0216C33.5771 12.7903 34.0199 13.3882 33.5015 13.7943Z" fill="#FF9900"/>
<path fill-rule="evenodd" clip-rule="evenodd" d="M34.803 12.2319C34.4034 11.6961 32.1516 11.9781 31.1418 12.1022C30.834 12.1417 30.7854 11.8597 31.0662 11.6622C32.859 10.3424 35.802 10.7259 36.1476 11.1659C36.4932 11.6115 36.0558 14.6911 34.371 16.1632C34.1118 16.3889 33.8634 16.2704 33.9822 15.9715C34.3602 14.9844 35.208 12.7734 34.803 12.2319Z" fill="#FF9900"/>
<path fill-rule="evenodd" clip-rule="evenodd" d="M31.2119 2.35567V1.07531C31.2119 0.883543 31.3523 0.753815 31.5197 0.753815H37.0115C37.1897 0.753815 37.3301 0.889183 37.3301 1.07531V2.17518C37.3301 2.36131 37.1789 2.59821 36.9143 2.98175L34.0739 7.22329C35.1323 7.19509 36.2501 7.35866 37.2059 7.92269C37.4219 8.05242 37.4813 8.23855 37.4975 8.41904V9.78401C37.4975 9.97014 37.2977 10.1901 37.0925 10.0773C35.4023 9.15229 33.1559 9.05076 31.2875 10.0886C31.0985 10.1958 30.8987 9.98142 30.8987 9.79529V8.49801C30.8987 8.28932 30.8987 7.93397 31.0985 7.61811L34.3979 2.67717H31.5305C31.3523 2.67717 31.2119 2.54744 31.2119 2.35567Z" fill="#FF9900"/>
<path fill-rule="evenodd" clip-rule="evenodd" d="M11.1726 10.3537H9.50403C9.34203 10.3424 9.21783 10.2183 9.20703 10.0547V1.09787C9.20703 0.917381 9.35283 0.776372 9.53103 0.776372H11.0916C11.2536 0.782012 11.3832 0.91174 11.394 1.07531V2.2485H11.4264C11.8314 1.11479 12.5982 0.59024 13.6242 0.59024C14.6718 0.59024 15.3252 1.12043 15.795 2.2485C16.2 1.11479 17.118 0.59024 18.1008 0.59024C18.8028 0.59024 19.5696 0.894819 20.034 1.57166C20.5632 2.32747 20.4552 3.42169 20.4552 4.38055V10.0322C20.4552 10.2127 20.3094 10.3537 20.1312 10.3537H18.4626C18.2952 10.3424 18.1602 10.2014 18.1602 10.0322V5.28301C18.1602 4.90511 18.1926 3.96317 18.1116 3.60219C17.9874 2.99867 17.6148 2.82946 17.1288 2.82946C16.7238 2.82946 16.3026 3.11147 16.1298 3.5627C15.957 4.01393 15.9732 4.76974 15.9732 5.27737V10.0265C15.9732 10.207 15.8274 10.348 15.6492 10.348H13.986C13.8186 10.3368 13.6836 10.1957 13.6836 10.0265V5.27737C13.6836 4.27903 13.8402 2.8069 12.6522 2.8069C11.4534 2.8069 11.4966 4.23954 11.4966 5.27737V10.0265C11.4966 10.207 11.3508 10.3537 11.1726 10.3537Z" fill="#FF9900"/>
<path fill-rule="evenodd" clip-rule="evenodd" d="M42.066 0.58461C44.5446 0.58461 45.8892 2.80691 45.8892 5.63836C45.8892 8.36829 44.4042 10.5398 42.066 10.5398C39.6306 10.5398 38.3076 8.31752 38.3076 5.54247C38.3022 2.75614 39.6468 0.58461 42.066 0.58461ZM42.0768 2.41772C40.8456 2.41772 40.77 4.16623 40.77 5.26046C40.77 6.35468 40.7538 8.69543 42.066 8.69543C43.362 8.69543 43.4214 6.81155 43.4214 5.66092C43.4214 4.90511 43.389 4.00266 43.173 3.28634C42.984 2.66026 42.6114 2.41772 42.0768 2.41772Z" fill="#FF9900"/>
<path fill-rule="evenodd" clip-rule="evenodd" d="M49.1023 10.3537H47.4391C47.2717 10.3424 47.1367 10.2014 47.1367 10.0322V1.06968C47.1529 0.90611 47.2879 0.776382 47.4607 0.776382H49.0105C49.1563 0.782022 49.2751 0.889189 49.3075 1.02456V2.39516H49.3399C49.8097 1.17121 50.4631 0.58461 51.6187 0.58461C52.3693 0.58461 53.0983 0.866627 53.5681 1.63935C54.0055 2.35568 54.0055 3.56271 54.0055 4.42569V10.066C53.9893 10.224 53.8489 10.348 53.6815 10.348H52.0075C51.8563 10.3368 51.7267 10.2183 51.7105 10.066V5.20405C51.7105 4.22263 51.8185 2.78998 50.6629 2.78998C50.2579 2.78998 49.8799 3.072 49.6963 3.50631C49.4587 4.05342 49.4317 4.60054 49.4317 5.20405V10.0265C49.4263 10.207 49.2805 10.3537 49.1023 10.3537Z" fill="#FF9900"/>
<path fill-rule="evenodd" clip-rule="evenodd" d="M26.8325 6.07266C26.8325 6.75514 26.8487 7.31918 26.5193 7.9227C26.2547 8.4134 25.8281 8.71798 25.3637 8.71798C24.7211 8.71798 24.3485 8.20471 24.3485 7.45455C24.3485 5.9655 25.6229 5.69476 26.8379 5.69476L26.8325 6.07266ZM28.5173 10.3255C28.4093 10.427 28.2473 10.4383 28.1231 10.365C27.5669 9.88553 27.4697 9.65992 27.1619 9.20305C26.2439 10.1788 25.5959 10.4721 24.4079 10.4721C22.9985 10.4721 21.9077 9.56404 21.9077 7.75348C21.9077 6.33776 22.6421 5.37326 23.6897 4.89947C24.5969 4.48208 25.8659 4.40876 26.8325 4.29031V4.0647C26.8325 3.64731 26.8649 3.1566 26.6273 2.80126C26.4275 2.47976 26.0333 2.34439 25.6877 2.34439C25.0505 2.34439 24.4835 2.68845 24.3431 3.3935C24.3161 3.55143 24.2027 3.70372 24.0515 3.715L22.4315 3.53451C22.2965 3.50066 22.1399 3.38786 22.1831 3.16788C22.5611 1.12044 24.3377 0.5 25.9253 0.5C26.7407 0.5 27.7991 0.725614 28.4417 1.36861C29.2571 2.1639 29.1761 3.21865 29.1761 4.36928V7.08792C29.1761 7.90577 29.5001 8.26676 29.8079 8.7067C29.9159 8.86463 29.9375 9.05076 29.8025 9.16921C29.4623 9.47379 28.8575 10.0265 28.5173 10.3255Z" fill="#FF9900"/>
<path fill-rule="evenodd" clip-rule="evenodd" d="M4.9248 6.07266C4.9248 6.75514 4.941 7.31918 4.6116 7.9227C4.347 8.4134 3.9258 8.71798 3.456 8.71798C2.8134 8.71798 2.4408 8.20471 2.4408 7.45455C2.4408 5.9655 3.7152 5.69476 4.9248 5.69476V6.07266ZM6.6096 10.3255C6.5016 10.427 6.3396 10.4383 6.2154 10.365C5.6592 9.88553 5.562 9.65992 5.2542 9.20305C4.3362 10.1788 3.6882 10.4721 2.5002 10.4721C1.0962 10.4721 0 9.56404 0 7.75348C0 6.33776 0.7344 5.37326 1.782 4.89947C2.6892 4.48208 3.9582 4.40876 4.9248 4.29031V4.0647C4.9248 3.64731 4.9572 3.1566 4.725 2.80126C4.5198 2.47976 4.131 2.34439 3.7854 2.34439C3.1482 2.34439 2.5812 2.68845 2.4408 3.3935C2.4138 3.55143 2.3004 3.70372 2.1492 3.715L0.5292 3.53451C0.3942 3.50066 0.243 3.38786 0.2808 3.16788C0.6534 1.12044 2.43 0.5 4.0176 0.5C4.833 0.5 5.8914 0.725614 6.534 1.36861C7.3494 2.1639 7.2684 3.21865 7.2684 4.36928V7.08792C7.2684 7.90577 7.5924 8.26676 7.9002 8.7067C8.0082 8.86463 8.0298 9.05076 7.8948 9.16921C7.5546 9.47379 6.9498 10.0265 6.6096 10.3255Z" fill="#FF9900"/>
</g>
<defs>
<clipPath id="clip0_7833_8120">
<rect width="54" height="17" fill="white" transform="translate(0 0.5)"/>
</clipPath>
</defs>
</svg>
