<svg width="14" height="15" viewBox="0 0 14 15" fill="none" xmlns="http://www.w3.org/2000/svg">
<rect y="0.94043" width="14" height="14" rx="7" fill="#546FFF"/>
<g clip-path="url(#clip0_3817_47498)">
<g clip-path="url(#clip1_3817_47498)">
<path d="M5.57845 10.3078C5.47334 10.3078 5.36953 10.2846 5.27436 10.24C5.17919 10.1954 5.09501 10.1303 5.02779 10.0495L3.55701 8.28398C3.43531 8.13793 3.3766 7.94952 3.39381 7.7602C3.41103 7.57087 3.50274 7.39613 3.64879 7.27443C3.79484 7.15272 3.98325 7.09402 4.17257 7.11123C4.3619 7.12844 4.53664 7.22016 4.65834 7.36621L5.56212 8.45121L8.33101 4.9271C8.38913 4.85304 8.46126 4.79116 8.5433 4.74499C8.62533 4.69882 8.71565 4.66925 8.8091 4.65799C8.90256 4.64672 8.99732 4.65397 9.08798 4.67932C9.17863 4.70468 9.26341 4.74764 9.33745 4.80576C9.41151 4.86388 9.47339 4.93601 9.51956 5.01804C9.56573 5.10007 9.59529 5.1904 9.60656 5.28385C9.61783 5.37731 9.61058 5.47207 9.58522 5.56273C9.55987 5.65338 9.51691 5.73815 9.45879 5.81221L6.14234 10.034C6.07624 10.1179 5.9922 10.186 5.89638 10.2332C5.80056 10.2804 5.69538 10.3057 5.58856 10.307L5.57845 10.3078Z" fill="#FDFDFD"/>
</g>
</g>
<defs>
<clipPath id="clip0_3817_47498">
<rect width="7" height="7" fill="white" transform="translate(3 3.94043)"/>
</clipPath>
<clipPath id="clip1_3817_47498">
<rect width="7" height="7" fill="white" transform="translate(3 3.94043)"/>
</clipPath>
</defs>
</svg>
