<svg width="24" height="25" viewBox="0 0 24 25" fill="none" xmlns="http://www.w3.org/2000/svg">
<path d="M10 21.0508H5C3.89543 21.0508 3 20.1554 3 19.0508V12.3477C3 11.836 3.19615 11.3437 3.54809 10.9722L10.5481 3.58335C11.3369 2.75067 12.663 2.75067 13.4519 3.58335L20.4519 10.9722C20.8038 11.3437 21 11.836 21 12.3477V19.0508C21 20.1554 20.1046 21.0508 19 21.0508H14M10 21.0508V15.5508C10 15.2746 10.2239 15.0508 10.5 15.0508H13.5C13.7761 15.0508 14 15.2746 14 15.5508V21.0508M10 21.0508H14" stroke="#1F1F22" stroke-width="1.5"/>
</svg>
