<svg width="148" height="40" viewBox="0 0 148 40" fill="none" xmlns="http://www.w3.org/2000/svg">
<g clip-path="url(#clip0_3934_94147)">
<g clip-path="url(#clip1_3934_94147)">
<g clip-path="url(#clip2_3934_94147)">
<path d="M0.5 19.9994C0.5 13.8134 4.914 10.0104 11.972 10.0104H19.279V0.94043H28.424V29.4324H11.938C4.914 29.4324 0.5 25.7774 0.5 19.9994ZM10.149 19.6924C10.149 22.0654 11.585 23.3024 14.344 23.3024H19.23V16.0374H14.39C11.63 16.0374 10.149 17.2864 10.149 19.6924ZM87.565 19.6814C87.565 25.8684 83.151 29.6704 76.093 29.6704H68.786V38.7404H59.641V10.2484H76.127C83.151 10.2484 87.565 13.9034 87.565 19.6814ZM77.916 19.9884C77.916 17.6154 76.478 16.3784 73.715 16.3784H68.835V23.6434H73.681C76.444 23.6434 77.916 22.3944 77.916 19.9884ZM147.5 19.6814C147.5 25.8684 143.086 29.6704 136.028 29.6704H128.721V38.7404H119.576V10.2484H136.062C143.086 10.2484 147.5 13.9034 147.5 19.6814ZM137.851 19.9884C137.851 17.6154 136.413 16.3784 133.651 16.3784H128.77V23.6434H133.617C136.379 23.6434 137.851 22.3944 137.851 19.9884ZM90.289 19.8514C90.289 12.9284 95.829 9.22743 103.457 9.22743C111.085 9.22743 116.624 12.9284 116.624 19.8514C116.624 26.7754 111.085 30.5674 103.457 30.5674C95.829 30.5564 90.289 26.7754 90.289 19.8514ZM107.657 19.7434C107.657 16.3684 105.965 14.6754 103.4 14.6754C100.835 14.6754 99.143 16.3684 99.143 19.7434C99.143 23.0734 100.835 24.8914 103.4 24.8914C105.977 24.8804 107.657 23.0734 107.657 19.7434ZM56.576 20.2274C56.576 13.3044 52.123 9.11343 44.078 9.11343C36.35 9.11343 31.376 13.3044 31.376 19.8634C31.376 26.5024 36.305 30.4544 44.519 30.4544C49.687 30.4544 53.856 28.5184 56.054 25.3754L49.505 22.9834C48.372 24.2254 46.661 24.9084 44.859 24.9084C42.151 24.9084 40.27 23.8154 39.783 21.9584C39.749 21.8334 39.726 21.7194 39.704 21.5834H56.576V20.2274ZM39.776 17.2864C39.992 15.0374 41.549 13.6534 44.254 13.6534C46.959 13.6534 48.516 15.1154 48.516 17.2864H39.776Z" fill="#FF2300"/>
</g>
</g>
</g>
<defs>
<clipPath id="clip0_3934_94147">
<rect width="148" height="39" fill="white" transform="translate(0 0.0498047)"/>
</clipPath>
<clipPath id="clip1_3934_94147">
<rect width="148" height="39" fill="white" transform="translate(0 0.0498047)"/>
</clipPath>
<clipPath id="clip2_3934_94147">
<rect width="148" height="39" fill="white" transform="translate(0 0.0498047)"/>
</clipPath>
</defs>
</svg>
