<svg width="57" height="30" viewBox="0 0 57 30" fill="none" xmlns="http://www.w3.org/2000/svg">
<path d="M7.68 24.788C6.384 24.788 5.232 24.492 4.224 23.9C3.232 23.292 2.456 22.476 1.896 21.452C1.336 20.412 1.056 19.252 1.056 17.972C1.056 16.66 1.336 15.5 1.896 14.492C2.472 13.484 3.24 12.692 4.2 12.116C5.16 11.524 6.248 11.228 7.464 11.228C8.44 11.228 9.312 11.396 10.08 11.732C10.848 12.068 11.496 12.532 12.024 13.124C12.552 13.7 12.952 14.364 13.224 15.116C13.512 15.868 13.656 16.668 13.656 17.516C13.656 17.724 13.648 17.94 13.632 18.164C13.616 18.388 13.584 18.596 13.536 18.788H3.192V16.628H12L10.704 17.612C10.864 16.828 10.808 16.132 10.536 15.524C10.28 14.9 9.88 14.412 9.336 14.06C8.808 13.692 8.184 13.508 7.464 13.508C6.744 13.508 6.104 13.692 5.544 14.06C4.984 14.412 4.552 14.924 4.248 15.596C3.944 16.252 3.824 17.052 3.888 17.996C3.808 18.876 3.928 19.644 4.248 20.3C4.584 20.956 5.048 21.468 5.64 21.836C6.248 22.204 6.936 22.388 7.704 22.388C8.488 22.388 9.152 22.212 9.696 21.86C10.256 21.508 10.696 21.052 11.016 20.492L13.224 21.572C12.968 22.18 12.568 22.732 12.024 23.228C11.496 23.708 10.856 24.092 10.104 24.38C9.368 24.652 8.56 24.788 7.68 24.788ZM15.8467 24.5V6.62H23.3828C24.5028 6.62 25.4708 6.82 26.2868 7.22C27.1028 7.604 27.7268 8.164 28.1588 8.9C28.5908 9.62 28.8068 10.476 28.8068 11.468C28.8068 12.332 28.5828 13.124 28.1348 13.844C27.7028 14.548 27.0228 15.108 26.0947 15.524V14.324C26.9107 14.644 27.5747 15.052 28.0868 15.548C28.5988 16.028 28.9668 16.572 29.1908 17.18C29.4307 17.788 29.5507 18.428 29.5507 19.1C29.5507 20.78 28.9988 22.1 27.8948 23.06C26.8068 24.02 25.3108 24.5 23.4068 24.5H15.8467ZM18.6787 21.98H23.6228C24.5668 21.98 25.3188 21.724 25.8788 21.212C26.4388 20.684 26.7188 19.988 26.7188 19.124C26.7188 18.244 26.4388 17.548 25.8788 17.036C25.3188 16.508 24.5668 16.244 23.6228 16.244H18.6787V21.98ZM18.6787 13.748H23.4548C24.2228 13.748 24.8388 13.532 25.3028 13.1C25.7667 12.652 25.9987 12.068 25.9987 11.348C25.9987 10.628 25.7667 10.068 25.3028 9.668C24.8388 9.268 24.2228 9.068 23.4548 9.068H18.6787V13.748ZM35.3679 24.788C34.4879 24.788 33.7119 24.636 33.0399 24.332C32.3839 24.012 31.8719 23.58 31.5039 23.036C31.1359 22.476 30.9519 21.82 30.9519 21.068C30.9519 20.364 31.1039 19.732 31.4079 19.172C31.7279 18.612 32.2159 18.14 32.8719 17.756C33.5279 17.372 34.3519 17.1 35.3439 16.94L39.8559 16.196V18.332L35.8719 19.028C35.1519 19.156 34.6239 19.388 34.2879 19.724C33.9519 20.044 33.7839 20.46 33.7839 20.972C33.7839 21.468 33.9679 21.876 34.3359 22.196C34.7199 22.5 35.2079 22.652 35.7999 22.652C36.5359 22.652 37.1759 22.492 37.7199 22.172C38.2799 21.852 38.7119 21.428 39.0159 20.9C39.3199 20.356 39.4719 19.756 39.4719 19.1V15.764C39.4719 15.124 39.2319 14.604 38.7519 14.204C38.2879 13.788 37.6639 13.58 36.8799 13.58C36.1599 13.58 35.5279 13.772 34.9839 14.156C34.4559 14.524 34.0639 15.004 33.8079 15.596L31.5519 14.468C31.7919 13.828 32.1839 13.268 32.7279 12.788C33.2719 12.292 33.9039 11.908 34.6239 11.636C35.3599 11.364 36.1359 11.228 36.9519 11.228C37.9759 11.228 38.8799 11.42 39.6639 11.804C40.4639 12.188 41.0799 12.724 41.5119 13.412C41.9599 14.084 42.1839 14.868 42.1839 15.764V24.5H39.5919V22.148L40.1439 22.22C39.8399 22.748 39.4479 23.204 38.9679 23.588C38.5039 23.972 37.9679 24.268 37.3599 24.476C36.7679 24.684 36.1039 24.788 35.3679 24.788ZM45.7869 29.804C45.4669 29.804 45.1469 29.772 44.8269 29.708C44.5229 29.66 44.2429 29.58 43.9869 29.468V27.14C44.1789 27.188 44.4109 27.228 44.6829 27.26C44.9549 27.308 45.2189 27.332 45.4749 27.332C46.2269 27.332 46.7789 27.164 47.1309 26.828C47.4989 26.508 47.8269 26.004 48.1149 25.316L48.9789 23.348L48.9309 25.628L43.3149 11.516H46.2189L50.3709 22.34H49.3869L53.5149 11.516H56.4429L50.7069 25.916C50.4029 26.684 50.0189 27.356 49.5549 27.932C49.1069 28.524 48.5709 28.98 47.9469 29.3C47.3389 29.636 46.6189 29.804 45.7869 29.804Z" fill="#161317"/>
</svg>
