<svg width="148" height="61" viewBox="0 0 148 61" fill="none" xmlns="http://www.w3.org/2000/svg">
<g clip-path="url(#clip0_3817_47242)">
<g clip-path="url(#clip1_3817_47242)">
<path d="M19.5441 13.7959C9.18307 13.7959 0.549072 18.1799 0.549072 31.4069C0.549072 41.8849 6.35507 48.4829 19.8121 48.4829C35.6521 48.4829 36.6671 38.0769 36.6671 38.0769H28.9921C28.9921 38.0769 27.3461 43.6809 19.3441 43.6809C12.8261 43.6809 8.13807 39.2889 8.13807 33.1339H37.4701V29.2719C37.4701 23.1829 33.5941 13.7959 19.5441 13.7959ZM19.2771 18.7329C25.4811 18.7329 29.7111 22.5229 29.7111 28.2049H8.30807C8.30807 22.1729 13.8291 18.7329 19.2771 18.7329Z" fill="#E53238"/>
<path d="M37.4651 0.989258V41.8413C37.4651 44.1603 37.2991 47.4163 37.2991 47.4163H44.6191C44.6191 47.4163 44.8821 45.0773 44.8821 42.9403C44.8821 42.9403 48.4991 48.5833 58.3331 48.5833C68.6891 48.5833 75.7231 41.4133 75.7231 31.1403C75.7231 21.5833 69.2621 13.8963 58.3501 13.8963C48.1311 13.8963 44.9561 19.4003 44.9561 19.4003V0.989258H37.4651ZM56.4601 18.9493C63.4931 18.9493 67.9651 24.1553 67.9651 31.1403C67.9651 38.6303 62.8001 43.5303 56.5111 43.5303C49.0051 43.5303 44.9561 37.6863 44.9561 31.2063C44.9561 25.1693 48.5891 18.9493 56.4601 18.9493Z" fill="#0064D2"/>
<path d="M93.9159 13.7959C78.3289 13.7959 77.3289 22.3089 77.3289 23.6689H85.0879C85.0879 23.6689 85.4939 18.6989 93.3809 18.6989C98.5059 18.6989 102.478 21.0389 102.478 25.5369V27.1379H93.3809C81.3049 27.1379 74.9209 30.6609 74.9209 37.8099C74.9209 44.8469 80.8199 48.6749 88.7909 48.6749C99.6549 48.6749 103.155 42.6879 103.155 42.6879C103.155 45.0699 103.339 47.4159 103.339 47.4159H110.237C110.237 47.4159 109.969 44.5069 109.969 42.6469V26.5619C109.969 16.0159 101.439 13.7959 93.9159 13.7959ZM102.478 31.9399V34.0749C102.478 36.8589 100.755 43.7809 90.6139 43.7809C85.0609 43.7809 82.6799 41.0169 82.6799 37.8099C82.6799 31.9779 90.6979 31.9399 102.478 31.9399Z" fill="#F5AF02"/>
<path d="M105.791 15.1318H114.52L127.046 40.1608L139.544 15.1318H147.451L124.686 59.6918H116.392L122.962 47.2698L105.791 15.1318Z" fill="#86B817"/>
</g>
</g>
<defs>
<clipPath id="clip0_3817_47242">
<rect width="148" height="60" fill="white" transform="translate(0 0.549805)"/>
</clipPath>
<clipPath id="clip1_3817_47242">
<rect width="148" height="60" fill="white" transform="translate(0 0.549805)"/>
</clipPath>
</defs>
</svg>
