<svg width="148" height="71" viewBox="0 0 148 71" fill="none" xmlns="http://www.w3.org/2000/svg">
<g clip-path="url(#clip0_3817_47233)">
<g clip-path="url(#clip1_3817_47233)">
<g clip-path="url(#clip2_3817_47233)">
<path d="M16.296 5.9458V25.6838C16.296 25.6838 23.269 25.6838 26.968 25.3998C29.957 24.8318 30.384 24.5478 30.953 21.7078L32.092 17.4478H35.222L34.653 26.6778L34.938 36.3338H31.807L30.953 32.6418C30.099 29.9438 29.103 29.3758 26.968 29.2338C24.265 28.9498 16.296 28.9498 16.296 28.9498V45.5638C16.296 48.6878 17.861 50.1078 21.703 50.1078H32.945C36.361 50.1078 39.918 49.8238 42.053 44.7118L44.899 38.3218H47.603C47.318 39.5998 46.037 51.3858 45.753 54.0838C45.753 54.0838 35.649 53.7998 31.38 53.7998H12.027H0.5V50.9598L4.2 50.1078C6.904 49.5398 7.758 48.8298 7.758 46.6998C7.758 46.6998 8.042 39.4578 8.042 27.5298C8.042 15.6018 7.758 8.3598 7.758 8.3598C7.758 5.9458 6.904 5.3778 4.2 4.9518L0.5 3.9578V1.1178L11.742 1.4018H33.088C37.357 1.2598 44.614 0.549805 44.614 0.549805C44.614 0.549805 44.33 5.09381 44.045 15.7438H41.057L39.918 12.0518C38.922 7.2238 37.357 4.8098 34.368 4.8098H17.576C16.296 4.8098 16.296 5.0938 16.296 5.9458ZM59.556 7.9338H62.829V19.1518L73.786 18.5838L73.217 23.6958L62.544 22.8438V42.5818C62.544 48.1198 64.394 50.3918 67.667 50.3918C70.513 50.3918 72.79 48.8298 73.502 47.4098L75.067 49.2558C73.502 52.9478 68.948 54.7938 64.679 54.7938C59.414 54.7938 55.002 51.6698 55.002 45.4218V23.1278H48.599V20.4298C54.006 20.0038 57.991 16.7378 59.556 7.9338ZM82.609 42.4398L84.744 47.5518C85.598 49.6818 87.448 51.8118 91.717 51.8118C96.271 51.8118 98.121 49.3978 98.121 46.4158C98.121 37.3278 80.19 40.0258 80.19 27.6718C80.19 20.7138 85.74 17.4478 92.998 17.4478C96.271 17.4478 100.967 18.0158 103.386 19.0098C102.817 21.7078 102.532 25.1158 102.532 27.8138L99.828 28.0978L97.978 22.7018C97.409 21.4238 95.274 20.2878 92.571 20.2878C89.298 20.2878 86.167 21.5658 86.167 25.1158C86.167 33.3518 104.666 31.5058 104.666 43.8598C104.666 50.8178 98.547 54.5098 91.005 54.5098C85.456 54.5098 79.763 52.3798 79.763 52.3798C80.333 49.2558 80.048 45.7058 79.763 42.2978C79.906 42.4398 82.609 42.4398 82.609 42.4398ZM103.386 67.9998C104.24 65.0178 104.667 61.3258 105.236 57.9178L108.224 57.6338L109.363 63.1718C109.647 64.4498 110.359 65.5858 112.493 65.5858C115.909 65.5858 120.462 63.4558 124.874 55.9298C123.024 51.3858 117.332 36.7598 112.209 25.5418C110.928 22.5598 110.643 22.2758 108.793 21.8498L107.37 21.2818V18.5838L115.482 18.8678L125.301 18.2998V20.9978L122.881 21.5658C121.031 21.8498 120.178 22.8438 120.178 23.9798C120.178 24.2638 120.178 24.5478 120.462 25.1158C121.031 26.6778 125.301 38.7478 128.431 46.6998C131.135 41.1618 136.116 28.5238 136.97 26.3938C137.254 25.2578 137.539 25.1158 137.539 24.2638C137.539 22.8438 136.685 22.1338 134.835 21.5658L132.985 20.9978V18.2998L140.527 18.5838L147.5 18.2998V20.9978L146.219 21.9918C143.515 23.1278 143.231 23.2698 142.235 25.5418L130.424 53.0898C123.451 68.8518 116.193 70.1298 111.212 70.1298C107.939 70.1298 105.52 69.2778 103.386 67.9998Z" fill="#F1641E"/>
</g>
</g>
</g>
<defs>
<clipPath id="clip0_3817_47233">
<rect width="148" height="70" fill="white" transform="translate(0 0.549805)"/>
</clipPath>
<clipPath id="clip1_3817_47233">
<rect width="148" height="70" fill="white" transform="translate(0 0.549805)"/>
</clipPath>
<clipPath id="clip2_3817_47233">
<rect width="148" height="70" fill="white" transform="translate(0 0.549805)"/>
</clipPath>
</defs>
</svg>
