<svg width="222" height="40" viewBox="0 0 222 40" fill="none" xmlns="http://www.w3.org/2000/svg">
<path d="M15.7836 31.5253C13.6547 31.5253 11.6605 31.148 9.80107 30.3935C7.94164 29.612 6.31126 28.5206 4.90995 27.1192C3.53559 25.7179 2.45766 24.0741 1.67616 22.1877C0.894656 20.2744 0.503906 18.1994 0.503906 15.9626C0.503906 13.699 0.894656 11.624 1.67616 9.73759C2.45766 7.85121 3.53559 6.20736 4.90995 4.80605C6.31126 3.40474 7.92816 2.32681 9.76064 1.57226C11.6201 0.817706 13.6277 0.44043 15.7836 0.44043C17.9395 0.44043 19.9336 0.83118 21.7661 1.61268C23.6255 2.36723 25.2424 3.44516 26.6168 4.84648C28.0181 6.22084 29.1095 7.85121 29.891 9.73759C30.6995 11.624 31.1037 13.699 31.1037 15.9626C31.1037 18.1994 30.6995 20.2744 29.891 22.1877C29.1095 24.0741 28.0181 25.7179 26.6168 27.1192C25.2424 28.5206 23.6255 29.612 21.7661 30.3935C19.9336 31.148 17.9395 31.5253 15.7836 31.5253ZM15.7836 27.8468C17.4544 27.8468 18.977 27.5504 20.3513 26.9576C21.7257 26.3377 22.9114 25.4889 23.9085 24.4109C24.9325 23.3061 25.714 22.0395 26.253 20.6112C26.8189 19.156 27.1019 17.6065 27.1019 15.9626C27.1019 14.3188 26.8189 12.7827 26.253 11.3545C25.714 9.92623 24.9325 8.67313 23.9085 7.5952C22.9114 6.49032 21.7257 5.64145 20.3513 5.04859C18.977 4.42878 17.4544 4.11887 15.7836 4.11887C14.1397 4.11887 12.6306 4.42878 11.2563 5.04859C9.88191 5.64145 8.68271 6.49032 7.65868 7.5952C6.66159 8.67313 5.88009 9.92623 5.31418 11.3545C4.74826 12.7827 4.46531 14.3188 4.46531 15.9626C4.46531 17.6065 4.74826 19.156 5.31418 20.6112C5.88009 22.0395 6.66159 23.3061 7.65868 24.4109C8.68271 25.4889 9.88191 26.3377 11.2563 26.9576C12.6306 27.5504 14.1397 27.8468 15.7836 27.8468Z" fill="white"/>
<path d="M35.2239 31.0402V9.25252H38.9024V13.699L38.3769 13.0118C38.9159 11.6374 39.7782 10.5865 40.9639 9.85886C42.1497 9.13126 43.4836 8.76745 44.9657 8.76745C46.6635 8.76745 48.1861 9.23905 49.5335 10.1822C50.9078 11.1254 51.851 12.365 52.3631 13.9011L51.3121 13.9415C51.878 12.2438 52.8346 10.9637 54.1821 10.1014C55.5295 9.2121 57.0251 8.76745 58.669 8.76745C60.1781 8.76745 61.5389 9.11778 62.7516 9.81843C63.9912 10.5191 64.9749 11.4892 65.7025 12.7289C66.4301 13.9685 66.7939 15.3698 66.7939 16.9328V31.0402H62.9942V18.1455C62.9942 16.9328 62.7786 15.9087 62.3474 15.0734C61.9162 14.238 61.3234 13.5912 60.5688 13.1331C59.8412 12.648 58.9789 12.4055 57.9818 12.4055C57.0116 12.4055 56.1358 12.648 55.3543 13.1331C54.5998 13.5912 53.9934 14.2514 53.5353 15.1138C53.1041 15.9492 52.8885 16.9597 52.8885 18.1455V31.0402H49.0888V18.1455C49.0888 16.9328 48.8733 15.9087 48.4421 15.0734C48.0109 14.238 47.418 13.5912 46.6635 13.1331C45.9359 12.648 45.0735 12.4055 44.0765 12.4055C43.1063 12.4055 42.2305 12.648 41.449 13.1331C40.6944 13.5912 40.0881 14.2514 39.63 15.1138C39.1988 15.9492 38.9832 16.9597 38.9832 18.1455V31.0402H35.2239Z" fill="white"/>
<path d="M70.9204 31.0402V9.25252H74.5989V13.4969L73.9925 13.1331C74.5315 11.7587 75.3938 10.6943 76.5796 9.9397C77.7922 9.1582 79.207 8.76745 80.8239 8.76745C82.3869 8.76745 83.7748 9.11778 84.9874 9.81843C86.2271 10.5191 87.1972 11.4892 87.8979 12.7289C88.6255 13.9685 88.9893 15.3698 88.9893 16.9328V31.0402H85.1895V18.1455C85.1895 16.9328 84.974 15.9087 84.5428 15.0734C84.1116 14.238 83.4918 13.5912 82.6834 13.1331C81.9019 12.648 80.9991 12.4055 79.9751 12.4055C78.951 12.4055 78.0348 12.648 77.2263 13.1331C76.4448 13.5912 75.825 14.2514 75.3669 15.1138C74.9088 15.9492 74.6797 16.9597 74.6797 18.1455V31.0402H70.9204Z" fill="white"/>
<path d="M112.328 31.5253C110.415 31.5253 108.664 31.175 107.074 30.4743C105.484 29.7467 104.136 28.7631 103.031 27.5235C101.926 26.2838 101.131 24.896 100.646 23.36L104.082 21.9452C104.81 23.8854 105.888 25.3811 107.316 26.4321C108.771 27.4561 110.469 27.9681 112.409 27.9681C113.595 27.9681 114.633 27.7795 115.522 27.4022C116.411 27.0249 117.098 26.4994 117.583 25.8257C118.095 25.1251 118.351 24.3166 118.351 23.4004C118.351 22.1338 117.988 21.1367 117.26 20.4091C116.559 19.6546 115.522 19.0886 114.147 18.7114L108.61 17.0136C106.427 16.3399 104.756 15.2755 103.597 13.8203C102.438 12.3651 101.859 10.6943 101.859 8.80788C101.859 7.16403 102.25 5.7223 103.031 4.48267C103.84 3.2161 104.945 2.23249 106.346 1.53184C107.774 0.804232 109.391 0.44043 111.197 0.44043C113.002 0.44043 114.633 0.763809 116.088 1.41057C117.57 2.05733 118.823 2.93315 119.847 4.03803C120.871 5.11596 121.626 6.35558 122.111 7.75689L118.715 9.17168C118.068 7.47393 117.098 6.19389 115.805 5.33154C114.511 4.44225 112.989 3.9976 111.237 3.9976C110.159 3.9976 109.202 4.18624 108.367 4.56352C107.559 4.91385 106.925 5.43934 106.467 6.13999C106.036 6.8137 105.82 7.62215 105.82 8.56534C105.82 9.67022 106.171 10.6538 106.871 11.5162C107.572 12.3785 108.637 13.0388 110.065 13.4969L115.118 14.9925C117.489 15.7201 119.281 16.7576 120.494 18.105C121.706 19.4525 122.313 21.1232 122.313 23.1174C122.313 24.7613 121.882 26.2165 121.019 27.483C120.184 28.7496 119.012 29.7467 117.503 30.4743C116.02 31.175 114.296 31.5253 112.328 31.5253Z" fill="white"/>
<path d="M127.628 39.9332C127.143 39.9332 126.658 39.8927 126.173 39.8119C125.687 39.758 125.229 39.6367 124.798 39.4481V36.093C125.095 36.12 125.458 36.1739 125.89 36.2547C126.348 36.3356 126.792 36.376 127.224 36.376C128.49 36.376 129.447 36.093 130.094 35.5271C130.767 34.9612 131.4 34.0045 131.993 32.6571L133.368 29.3829L133.287 32.6571L123.99 9.25252H128.072L135.308 27.8468H134.095L141.291 9.25252H145.454L135.631 33.6273C135.173 34.786 134.58 35.8505 133.853 36.8206C133.152 37.7908 132.29 38.5453 131.266 39.0843C130.242 39.6502 129.029 39.9332 127.628 39.9332Z" fill="white"/>
<path d="M147.586 31.0402V9.25252H151.264V13.4969L150.658 13.1331C151.197 11.7587 152.059 10.6943 153.245 9.9397C154.458 9.1582 155.872 8.76745 157.489 8.76745C159.052 8.76745 160.44 9.11778 161.653 9.81843C162.892 10.5191 163.862 11.4892 164.563 12.7289C165.291 13.9685 165.655 15.3698 165.655 16.9328V31.0402H161.855V18.1455C161.855 16.9328 161.639 15.9087 161.208 15.0734C160.777 14.238 160.157 13.5912 159.349 13.1331C158.567 12.648 157.664 12.4055 156.64 12.4055C155.616 12.4055 154.7 12.648 153.892 13.1331C153.11 13.5912 152.49 14.2514 152.032 15.1138C151.574 15.9492 151.345 16.9597 151.345 18.1455V31.0402H147.586Z" fill="white"/>
<path d="M169.821 31.0402V0.44043H173.58V21.4197L172.044 21.0559L183.605 9.25252H188.416L180.048 18.0242L188.981 31.0402H184.535L176.37 19.2369L178.714 19.1156L172.368 25.7449L173.58 22.9962V31.0402H169.821Z" fill="white"/>
<path d="M188.683 31.0402L199.476 0.925498H204.165L214.958 31.0402H210.713L208.247 23.9663H195.393L192.927 31.0402H188.683ZM196.646 20.3283H206.994L201.254 3.79549H202.386L196.646 20.3283Z" fill="white"/>
<path d="M217.54 31.0402V0.925498H221.501V31.0402H217.54Z" fill="white"/>
<g clip-path="url(#clip0_5153_19692)">
<path d="M98.0427 15.6177H92.2871V21.7415H98.0427V15.6177Z" fill="white"/>
<path d="M98.0427 24.9163H92.2871V31.0401H98.0427V24.9163Z" fill="white"/>
<path d="M91.2362 11.085L96.2207 14.147L99.0985 8.84356L94.114 5.78163L91.2362 11.085Z" fill="white"/>
</g>
<defs>
<clipPath id="clip0_5153_19692">
<rect width="7.85992" height="25.264" fill="white" transform="translate(91.2349 5.77612)"/>
</clipPath>
</defs>
</svg>
