<svg width="24" height="25" viewBox="0 0 24 25" fill="none" xmlns="http://www.w3.org/2000/svg">
<path d="M10 21.8047H5C3.89543 21.8047 3 20.9093 3 19.8047V13.1016C3 12.5899 3.19615 12.0976 3.54809 11.7261L10.5481 4.33725C11.3369 3.50457 12.663 3.50457 13.4519 4.33725L20.4519 11.7261C20.8038 12.0976 21 12.5899 21 13.1016V19.8047C21 20.9093 20.1046 21.8047 19 21.8047H14M10 21.8047V16.3047C10 16.0285 10.2239 15.8047 10.5 15.8047H13.5C13.7761 15.8047 14 16.0285 14 16.3047V21.8047M10 21.8047H14" stroke="#1F1F22" stroke-width="1.5"/>
</svg>
