<svg width="24" height="25" viewBox="0 0 24 25" fill="none" xmlns="http://www.w3.org/2000/svg">
<path d="M12 22.0508C17.3552 22.0508 21.7272 17.8413 21.9877 12.5507C22.0013 12.2749 21.7761 12.0508 21.5 12.0508H12.5C12.2239 12.0508 12 11.8269 12 11.5508V2.55078C12 2.27464 11.7759 2.04948 11.5001 2.06306C6.20948 2.32354 2 6.69557 2 12.0508C2 17.5736 6.47715 22.0508 12 22.0508Z" stroke="#0E0F1D" stroke-width="1.5"/>
<path d="M21.9846 9.55069C21.7367 5.53076 18.52 2.3141 14.5001 2.06616C14.2245 2.04916 14 2.27464 14 2.55078V9.55078C14 9.82692 14.2239 10.0508 14.5 10.0508H21.5C21.7761 10.0508 22.0016 9.82631 21.9846 9.55069Z" stroke="#0E0F1D" stroke-width="1.5"/>
</svg>
