<svg width="21" height="21" viewBox="0 0 21 21" fill="none" xmlns="http://www.w3.org/2000/svg">
<g clip-path="url(#clip0_5153_19702)">
<path d="M20.499 20.933V20.9321H20.504V13.5971C20.504 10.0088 19.7315 7.24463 15.5365 7.24463C13.5198 7.24463 12.1665 8.3513 11.614 9.40046H11.5556V7.57963H7.57812V20.9321H11.7198V14.3205C11.7198 12.5796 12.0498 10.8963 14.2056 10.8963C16.3298 10.8963 16.3615 12.883 16.3615 14.4321V20.933H20.499Z" fill="#FAFAFA"/>
<path d="M0.833984 7.58081H4.98065V20.9333H0.833984V7.58081Z" fill="#FAFAFA"/>
<path d="M2.90557 0.933105C1.57974 0.933105 0.503906 2.00894 0.503906 3.33477C0.503906 4.66061 1.57974 5.75894 2.90557 5.75894C4.23141 5.75894 5.30724 4.66061 5.30724 3.33477C5.30641 2.00894 4.23057 0.933105 2.90557 0.933105V0.933105Z" fill="#FAFAFA"/>
</g>
<defs>
<clipPath id="clip0_5153_19702">
<rect width="20" height="20" fill="white" transform="translate(0.503906 0.933105)"/>
</clipPath>
</defs>
</svg>
