<svg width="158" height="29" viewBox="0 0 158 29" fill="none" xmlns="http://www.w3.org/2000/svg">
<path d="M11.3701 22.0783C9.85802 22.0783 8.44164 21.8103 7.12097 21.2744C5.80029 20.7193 4.6423 19.9441 3.64701 18.9489C2.67086 17.9536 1.90525 16.786 1.35018 15.4462C0.795112 14.0872 0.517578 12.6134 0.517578 11.0248C0.517578 9.41701 0.795112 7.94321 1.35018 6.60339C1.90525 5.26357 2.67086 4.09601 3.64701 3.10072C4.6423 2.10543 5.79072 1.33982 7.09226 0.803891C8.41293 0.267964 9.83888 0 11.3701 0C12.9013 0 14.3177 0.277534 15.6192 0.832601C16.9399 1.36853 18.0883 2.13414 19.0645 3.12943C20.0598 4.10559 20.835 5.26357 21.39 6.60339C21.9642 7.94321 22.2513 9.41701 22.2513 11.0248C22.2513 12.6134 21.9642 14.0872 21.39 15.4462C20.835 16.786 20.0598 17.9536 19.0645 18.9489C18.0883 19.9441 16.9399 20.7193 15.6192 21.2744C14.3177 21.8103 12.9013 22.0783 11.3701 22.0783ZM11.3701 19.4656C12.5568 19.4656 13.6382 19.2551 14.6144 18.834C15.5905 18.3938 16.4327 17.7909 17.1409 17.0253C17.8682 16.2405 18.4233 15.3409 18.8061 14.3265C19.208 13.2929 19.409 12.1923 19.409 11.0248C19.409 9.85723 19.208 8.76624 18.8061 7.7518C18.4233 6.73737 17.8682 5.84735 17.1409 5.08174C16.4327 4.29699 15.5905 3.69407 14.6144 3.27298C13.6382 2.83276 12.5568 2.61265 11.3701 2.61265C10.2025 2.61265 9.13069 2.83276 8.15454 3.27298C7.17839 3.69407 6.32665 4.29699 5.59932 5.08174C4.89113 5.84735 4.33606 6.73737 3.93411 7.7518C3.53217 8.76624 3.3312 9.85723 3.3312 11.0248C3.3312 12.1923 3.53217 13.2929 3.93411 14.3265C4.33606 15.3409 4.89113 16.2405 5.59932 17.0253C6.32665 17.7909 7.17839 18.3938 8.15454 18.834C9.13069 19.2551 10.2025 19.4656 11.3701 19.4656Z" fill="black"/>
<path d="M25.1778 21.7338V6.25886H27.7904V9.41701L27.4172 8.92893C27.8 7.95278 28.4125 7.20631 29.2547 6.68952C30.0968 6.17273 31.0443 5.91434 32.097 5.91434C33.3028 5.91434 34.3842 6.24929 35.3413 6.9192C36.3174 7.58911 36.9873 8.46956 37.351 9.56056L36.6045 9.58927C37.0065 8.38343 37.6859 7.47427 38.6429 6.86178C39.6 6.23015 40.6622 5.91434 41.8298 5.91434C42.9016 5.91434 43.8682 6.16316 44.7295 6.66081C45.61 7.15845 46.3086 7.8475 46.8254 8.72796C47.3422 9.60841 47.6006 10.6037 47.6006 11.7138V21.7338H44.9018V12.5751C44.9018 11.7138 44.7487 10.9865 44.4424 10.3932C44.1362 9.79981 43.7151 9.34044 43.1792 9.01506C42.6624 8.67054 42.0499 8.49827 41.3417 8.49827C40.6527 8.49827 40.0306 8.67054 39.4755 9.01506C38.9396 9.34044 38.509 9.80938 38.1836 10.4219C37.8773 11.0152 37.7242 11.733 37.7242 12.5751V21.7338H35.0254V12.5751C35.0254 11.7138 34.8723 10.9865 34.5661 10.3932C34.2598 9.79981 33.8387 9.34044 33.3028 9.01506C32.786 8.67054 32.1735 8.49827 31.4653 8.49827C30.7763 8.49827 30.1542 8.67054 29.5992 9.01506C29.0632 9.34044 28.6326 9.80938 28.3072 10.4219C28.001 11.0152 27.8478 11.733 27.8478 12.5751V21.7338H25.1778Z" fill="black"/>
<path d="M50.5315 21.7338V6.25886H53.1442V9.27345L52.7135 9.01506C53.0963 8.03891 53.7088 7.28287 54.551 6.74694C55.4123 6.19187 56.4171 5.91434 57.5656 5.91434C58.6757 5.91434 59.6614 6.16316 60.5227 6.66081C61.4032 7.15845 62.0922 7.8475 62.5899 8.72796C63.1067 9.60841 63.3651 10.6037 63.3651 11.7138V21.7338H60.6663V12.5751C60.6663 11.7138 60.5132 10.9865 60.2069 10.3932C59.9007 9.79981 59.4604 9.34044 58.8862 9.01506C58.3312 8.67054 57.69 8.49827 56.9626 8.49827C56.2353 8.49827 55.5845 8.67054 55.0103 9.01506C54.4553 9.34044 54.015 9.80938 53.6897 10.4219C53.3643 11.0152 53.2016 11.733 53.2016 12.5751V21.7338H50.5315Z" fill="black"/>
<path d="M79.9419 22.0783C78.583 22.0783 77.3389 21.8295 76.2096 21.3318C75.0803 20.815 74.1233 20.1164 73.3385 19.236C72.5538 18.3555 71.9892 17.3698 71.6446 16.2788L74.085 15.2739C74.6018 16.652 75.3674 17.7143 76.3818 18.4608C77.4154 19.1881 78.6213 19.5518 79.9994 19.5518C80.8415 19.5518 81.5784 19.4178 82.21 19.1498C82.8417 18.8819 83.3298 18.5086 83.6743 18.0301C84.0379 17.5325 84.2198 16.9583 84.2198 16.3075C84.2198 15.4079 83.9614 14.6997 83.4446 14.1829C82.947 13.647 82.2101 13.2451 81.2339 12.9771L77.3006 11.7713C75.7502 11.2928 74.5635 10.5367 73.7405 9.50314C72.9175 8.46956 72.5059 7.28287 72.5059 5.94305C72.5059 4.77549 72.7835 3.75149 73.3385 2.87104C73.9128 1.97145 74.6975 1.27283 75.6928 0.775181C76.7072 0.258394 77.8556 0 79.138 0C80.4204 0 81.5784 0.229683 82.612 0.689049C83.6647 1.14841 84.5547 1.77047 85.2821 2.55522C86.0094 3.32083 86.5453 4.20129 86.8898 5.19658L84.4782 6.20144C84.0188 4.99561 83.3298 4.08644 82.411 3.47396C81.4923 2.84233 80.4109 2.52651 79.1667 2.52651C78.4011 2.52651 77.7217 2.6605 77.1283 2.92846C76.5541 3.17728 76.1043 3.55052 75.7789 4.04816C75.4727 4.52667 75.3196 5.10088 75.3196 5.77079C75.3196 6.55554 75.5684 7.25416 76.066 7.86664C76.5637 8.47913 77.3197 8.94807 78.3342 9.27345L81.923 10.3357C83.6073 10.8525 84.8801 11.5894 85.7414 12.5464C86.6027 13.5034 87.0334 14.6901 87.0334 16.1065C87.0334 17.2741 86.7271 18.3077 86.1147 19.2072C85.5213 20.1068 84.6887 20.815 83.6169 21.3318C82.5641 21.8295 81.3392 22.0783 79.9419 22.0783Z" fill="black"/>
<path d="M90.8084 28.05C90.4638 28.05 90.1193 28.0213 89.7748 27.9639C89.4303 27.9256 89.1049 27.8395 88.7986 27.7055V25.3226C89.0092 25.3417 89.2676 25.38 89.5738 25.4374C89.8992 25.4948 90.215 25.5235 90.5213 25.5235C91.4208 25.5235 92.1003 25.3226 92.5597 24.9206C93.0382 24.5187 93.488 23.8392 93.9091 22.8822L94.8852 20.5566L94.8278 22.8822L88.2244 6.25886H91.1242L96.2633 19.4656H95.402L100.512 6.25886H103.47L96.493 23.5712C96.1676 24.3943 95.7465 25.1503 95.2298 25.8393C94.7321 26.5284 94.1196 27.0643 93.3923 27.4471C92.665 27.8491 91.8037 28.05 90.8084 28.05Z" fill="black"/>
<path d="M104.984 21.7338V6.25886H107.596V9.27345L107.166 9.01506C107.548 8.03891 108.161 7.28287 109.003 6.74694C109.864 6.19187 110.869 5.91434 112.018 5.91434C113.128 5.91434 114.114 6.16316 114.975 6.66081C115.855 7.15845 116.544 7.8475 117.042 8.72796C117.559 9.60841 117.817 10.6037 117.817 11.7138V21.7338H115.118V12.5751C115.118 11.7138 114.965 10.9865 114.659 10.3932C114.353 9.79981 113.913 9.34044 113.338 9.01506C112.783 8.67054 112.142 8.49827 111.415 8.49827C110.687 8.49827 110.037 8.67054 109.462 9.01506C108.907 9.34044 108.467 9.80938 108.142 10.4219C107.816 11.0152 107.654 11.733 107.654 12.5751V21.7338H104.984Z" fill="black"/>
<path d="M120.777 21.7338V0H123.447V14.9007L122.356 14.6423L130.567 6.25886H133.983L128.04 12.489L134.385 21.7338H131.227L125.428 13.3503L127.093 13.2642L122.585 17.9727L123.447 16.0204V21.7338H120.777Z" fill="black"/>
<path d="M134.173 21.7338L141.839 0.344524H145.169L152.835 21.7338H149.821L148.069 16.7094H138.939L137.188 21.7338H134.173ZM139.829 14.1255H147.179L143.102 2.38296H143.906L139.829 14.1255Z" fill="black"/>
<path d="M154.669 21.7338V0.344524H157.483V21.7338H154.669Z" fill="black"/>
<g clip-path="url(#clip0_7412_2274)">
<path d="M69.795 10.7812H65.707V15.1308H69.795V10.7812Z" fill="#546FFF"/>
<path d="M69.795 17.3848H65.707V21.7343H69.795V17.3848Z" fill="#546FFF"/>
<path d="M64.9605 7.56157L68.5007 9.73633L70.5447 5.96954L67.0044 3.79478L64.9605 7.56157Z" fill="#546FFF"/>
</g>
<defs>
<clipPath id="clip0_7412_2274">
<rect width="5.58257" height="17.944" fill="white" transform="translate(64.9597 3.79102)"/>
</clipPath>
</defs>
</svg>
