<svg width="148" height="35" viewBox="0 0 148 35" fill="none" xmlns="http://www.w3.org/2000/svg">
<g clip-path="url(#clip0_3934_94179)">
<path d="M42.6499 33.2146V29.1566H32.5229V25.3936H42.1819V21.3956H32.5229V17.4556H42.6499V13.5166H28.1899V33.2146H42.6499Z" fill="#5356EE"/>
<path d="M63.491 11.8119C64.896 12.9879 65.599 14.5749 65.599 16.5749C65.657 19.1619 64.194 21.5729 61.852 22.6899L66.184 29.8049H61.267L57.52 23.5129H54.417V29.7459H50.085V10.0479H58.164C60.33 10.0479 62.145 10.6359 63.491 11.8119ZM57.461 14.1049H54.417V19.5149H57.461C60.096 19.5149 61.384 18.5739 61.384 16.7509C61.384 14.9279 60.096 14.1049 57.461 14.1049Z" fill="#5356EE"/>
<path d="M86.7909 26.7476C85.5029 28.5116 83.7469 29.4516 81.6389 29.4516C80.1169 29.5106 78.5949 28.9226 77.4829 27.8056C76.3709 26.6886 75.7849 25.2186 75.7849 23.3366C75.7849 21.4556 76.3709 19.9856 77.4829 18.9266C78.5369 17.8686 79.9419 17.2806 81.4049 17.2806C83.3959 17.2216 85.2689 18.2216 86.4399 19.8676L86.4979 19.9856L89.4259 16.9866L89.3669 16.9276C87.3769 14.4576 84.8009 13.2236 81.5809 13.2236C78.6539 13.2236 76.1949 14.1636 74.2629 16.0456C72.3309 17.9276 71.3359 20.3966 71.3359 23.4546C71.3359 26.4536 72.3309 28.9226 74.2629 30.8046C76.1949 32.6276 78.7119 33.5676 81.6979 33.5676C84.9759 33.5676 87.6109 32.3336 89.6599 29.8636L89.7179 29.8046L86.8499 26.7476H86.7909Z" fill="#5356EE"/>
<path d="M101.31 10.0479H105.349V10.1069L112.96 29.7459H108.51L107.105 26.2179H99.5531L98.1481 29.7459H93.6411L93.6991 29.5689L101.31 10.0479ZM100.958 22.3369H105.642L103.3 16.1039L100.958 22.3369Z" fill="#5356EE"/>
<path d="M132.045 15.2216C133.45 16.3976 134.152 17.9846 134.152 19.9846C134.211 22.5716 132.747 24.9826 130.406 26.0996L134.738 33.2146H129.82L126.015 26.9816H122.912V33.2146H118.58V13.5166H126.659C128.884 13.5166 130.64 14.0456 132.045 15.2216ZM126.015 17.5146H122.971V22.9246H126.015C128.649 22.9246 129.937 21.9836 129.937 20.1606C129.879 18.3966 128.649 17.5146 126.015 17.5146Z" fill="#5356EE"/>
<path d="M141.236 11.7529H145.51V29.7459H141.236V11.7529Z" fill="#5356EE"/>
<path d="M140.768 5.87295L142.758 1.16895L147.5 3.16795L145.51 7.87195L140.768 5.87295Z" fill="#5356EE"/>
<path d="M10.569 20.7489L16.072 10.1069H20.463V29.8049H16.131V18.5149H16.072L11.857 26.0999H9.047L4.891 18.5149H4.832V29.7459H0.5V10.0479H4.891L10.452 20.7489H10.569Z" fill="#5356EE"/>
</g>
<defs>
<clipPath id="clip0_3934_94179">
<rect width="148" height="34" fill="white" transform="translate(0 0.549805)"/>
</clipPath>
</defs>
</svg>
