<svg width="56" height="47" viewBox="0 0 56 47" fill="none" xmlns="http://www.w3.org/2000/svg">
<path d="M16.6818 40.541C17.0553 39.8621 17.4087 39.2276 17.7541 38.5932C17.8385 38.4356 17.9349 38.4113 18.1036 38.4679C19.931 39.0862 21.136 40.8441 21.0436 42.7676C20.9552 44.6468 19.5856 46.2551 17.71 46.6915C15.8584 47.1199 13.8381 46.1177 13.0268 44.4205C12.4404 43.196 12.5087 41.9877 12.9023 40.735C13.6012 38.5043 14.6816 36.4918 16.2279 34.7461C17.7582 33.0165 19.5816 31.6829 21.6942 30.7494C21.8027 30.7009 21.9071 30.6443 22.0477 30.5756C21.5537 30.3291 21.0797 30.1311 20.6419 29.8644C19.8668 29.3916 19.1077 28.8905 18.3526 28.3854C18.208 28.2884 18.1156 28.252 17.9469 28.353C14.6896 30.3453 12.1874 33.0448 10.4804 36.4756C9.43616 38.573 8.79353 40.7915 8.53648 43.1273C8.31558 45.1236 6.46 46.7441 4.45983 46.7885C2.43957 46.833 0.680384 45.4267 0.218497 43.5112C-0.41208 40.8724 1.58809 38.278 4.2831 38.2941C4.74098 38.2941 5.19885 38.4113 5.6527 38.4881C5.71696 38.5002 5.81737 38.6296 5.80131 38.6821C5.63663 39.3852 5.4559 40.0844 5.29122 40.7309C4.87352 40.6865 4.47589 40.5854 4.09032 40.6178C3.13441 40.6946 2.36728 41.6281 2.40744 42.602C2.4476 43.6041 3.29507 44.4447 4.29917 44.477C5.25106 44.5094 6.14672 43.7092 6.25918 42.7474C6.58852 39.9348 7.39984 37.2717 8.76542 34.7905C9.17911 34.0389 9.62895 33.3034 10.0788 32.5356C5.82541 27.8115 3.62843 22.2429 3.5481 15.8095H5.85352C5.9218 21.4912 7.8296 26.4416 11.5207 30.6726C12.0709 30.1392 12.585 29.6139 13.1232 29.1208C16.0632 26.4093 19.4692 24.6069 23.3771 23.7623C25.3371 23.338 27.3172 23.1602 29.3094 23.2895C31.9763 23.4633 34.5468 24.0614 36.9887 25.1808C37.531 25.4273 37.535 25.4232 37.9446 24.9787C39.0733 23.7543 39.9288 22.356 40.5352 20.8043C41.2702 18.9211 41.5795 16.9652 41.4349 14.9487C41.206 11.7926 40.0292 9.03656 37.8924 6.71293C35.5709 4.17916 32.6831 2.74457 29.2853 2.39299C26.9075 2.14649 24.6102 2.53443 22.4453 3.55279C18.9872 5.18135 16.5814 7.80403 15.3041 11.4289C14.1795 14.6214 14.288 17.8138 15.5411 20.9497C15.9106 21.8792 16.4368 22.744 16.9067 23.6734C16.3163 24.0169 15.6616 24.3968 15.0069 24.7767C11.5649 20.0405 10.7254 11.8088 16.011 5.59354C21.4974 -0.856054 30.936 -1.85825 37.5631 3.26587C39.9247 5.09245 41.6558 7.408 42.7242 10.2085C43.7885 13.0009 44.0335 15.8741 43.4873 18.8079C42.937 21.7539 41.6357 24.3362 39.6155 26.5952C41.4148 27.7307 42.9893 29.0845 44.4151 30.6726C48.1222 26.4012 50.0019 21.471 50.0822 15.8216H52.3836C52.3073 22.2186 50.1264 27.7671 45.9012 32.4911C46.363 33.263 46.841 34.0025 47.2587 34.7743C48.4074 36.8838 49.1866 39.1307 49.5762 41.5068C49.6565 41.9958 49.7007 42.4969 49.8011 42.9818C49.9778 43.8304 50.8052 44.4892 51.6607 44.4892C52.5564 44.4892 53.3556 43.8466 53.5564 42.9454C53.7171 42.2221 53.4922 41.5998 52.962 41.1148C52.4118 40.6137 51.7611 40.4521 51.0381 40.7228C50.9458 40.7592 50.8454 40.7835 50.753 40.8117C50.5722 40.0965 50.3875 39.4095 50.2228 38.7144C50.2108 38.6538 50.2871 38.5245 50.3513 38.5043C52.8977 37.6839 55.4482 39.2963 55.8418 41.8463C56.1952 44.1093 54.8497 46.1339 52.6728 46.6794C50.1907 47.3058 47.7286 45.5277 47.4635 42.9657C47.2507 40.8966 46.6683 38.9205 45.8048 37.0333C44.8489 34.9481 43.5757 33.0811 41.9691 31.4526C40.8043 30.2685 39.511 29.238 38.0892 28.3773C37.9165 28.2722 37.8121 28.2884 37.6595 28.4056C36.1533 29.5815 34.4945 30.4706 32.6671 31.0282C31.2814 31.4485 29.8636 31.7193 28.4057 31.7152C25.4094 31.7152 22.6542 32.4952 20.2122 34.2652C18.2723 35.6674 16.7581 37.4455 15.7982 39.656C15.4367 40.4885 15.1515 41.3613 14.9266 42.2423C14.6977 43.1394 15.268 44.0244 16.1837 44.3679C17.0071 44.6791 17.9911 44.3235 18.449 43.5637C19.2362 42.2585 18.3205 40.7713 17.0392 40.6218C16.9468 40.6097 16.8585 40.5895 16.6858 40.5572L16.6818 40.541ZM35.5268 27.0518C30.5022 25.0515 25.5179 25.0474 20.4933 27.0558C24.7307 30.115 31.0967 30.2483 35.5268 27.0518Z" fill="#546FFF"/>
<path d="M39.2821 40.4359C38.8162 40.6542 38.3664 40.7835 38.0169 41.0421C37.3101 41.5634 37.1092 42.4686 37.4386 43.2768C37.7398 44.0083 38.5873 44.5457 39.3383 44.477C40.2139 44.3962 40.9489 43.786 41.0895 42.9293C41.1497 42.5454 41.1056 42.1211 41.0011 41.7412C40.4308 39.6439 39.4307 37.7809 37.9607 36.1726C36.8401 34.9441 35.5428 33.95 34.0688 33.1902C33.9965 33.1539 33.9282 33.1135 33.8559 33.069C34.6994 32.6851 35.5228 32.3012 36.3582 31.9335C36.4264 31.9011 36.555 31.9456 36.6313 31.9941C38.527 33.2509 40.0934 34.839 41.3144 36.7666C42.2502 38.2497 42.925 39.8459 43.3427 41.5553C43.9291 43.9638 42.2462 46.4329 39.7922 46.736C37.4747 47.0229 35.4464 45.5277 35.0408 43.2283C34.6793 41.2037 35.9726 39.0781 37.9366 38.4841C38.025 38.4558 38.1977 38.4922 38.2338 38.5568C38.6033 39.1913 38.9568 39.8338 39.2901 40.4359H39.2821Z" fill="#546FFF"/>
</svg>
