<svg width="210" height="38" viewBox="0 0 210 38" fill="none" xmlns="http://www.w3.org/2000/svg">
<path d="M14.8072 29.74C12.7906 29.74 10.9017 29.3826 9.14041 28.6679C7.37913 27.9277 5.83481 26.8939 4.50747 25.5665C3.20565 24.2392 2.18461 22.6821 1.44436 20.8953C0.70411 19.0829 0.333984 17.1175 0.333984 14.9988C0.333984 12.8546 0.70411 10.8891 1.44436 9.10233C2.18461 7.31552 3.20565 5.75844 4.50747 4.43109C5.83481 3.10374 7.36636 2.08271 9.10212 1.36799C10.8634 0.653261 12.7651 0.295898 14.8072 0.295898C16.8492 0.295898 18.7381 0.666023 20.4739 1.40627C22.2352 2.121 23.7667 3.14203 25.0686 4.46938C26.3959 5.7712 27.4297 7.31552 28.17 9.10233C28.9357 10.8891 29.3186 12.8546 29.3186 14.9988C29.3186 17.1175 28.9357 19.0829 28.17 20.8953C27.4297 22.6821 26.3959 24.2392 25.0686 25.5665C23.7667 26.8939 22.2352 27.9277 20.4739 28.6679C18.7381 29.3826 16.8492 29.74 14.8072 29.74ZM14.8072 26.2557C16.3898 26.2557 17.832 25.9749 19.1338 25.4134C20.4356 24.8263 21.5588 24.0222 22.5032 23.0012C23.4732 21.9546 24.2134 20.7549 24.724 19.402C25.26 18.0236 25.528 16.5559 25.528 14.9988C25.528 13.4417 25.26 11.9868 24.724 10.6339C24.2134 9.28101 23.4732 8.09405 22.5032 7.07302C21.5588 6.02646 20.4356 5.22239 19.1338 4.66082C17.832 4.07373 16.3898 3.78018 14.8072 3.78018C13.2501 3.78018 11.8206 4.07373 10.5188 4.66082C9.21699 5.22239 8.08109 6.02646 7.1111 7.07302C6.16665 8.09405 5.4264 9.28101 4.89035 10.6339C4.35431 11.9868 4.08629 13.4417 4.08629 14.9988C4.08629 16.5559 4.35431 18.0236 4.89035 19.402C5.4264 20.7549 6.16665 21.9546 7.1111 23.0012C8.08109 24.0222 9.21699 24.8263 10.5188 25.4134C11.8206 25.9749 13.2501 26.2557 14.8072 26.2557Z" fill="black"/>
<path d="M33.2214 29.2805V8.64286H36.7057V12.8546L36.2079 12.2037C36.7184 10.9019 37.5353 9.90639 38.6584 9.21719C39.7815 8.528 41.0451 8.1834 42.449 8.1834C44.0571 8.1834 45.4993 8.6301 46.7756 9.5235C48.0774 10.4169 48.9709 11.5911 49.4558 13.0461L48.4603 13.0844C48.9964 11.4762 49.9025 10.2638 51.1788 9.44693C52.4551 8.60457 53.8718 8.1834 55.4289 8.1834C56.8583 8.1834 58.1474 8.51523 59.2961 9.1789C60.4703 9.84258 61.402 10.7615 62.0912 11.9357C62.7804 13.1099 63.125 14.4372 63.125 15.9177V29.2805H59.5258V17.0664C59.5258 15.9177 59.3216 14.9478 58.9132 14.1565C58.5048 13.3651 57.9432 12.7525 57.2285 12.3186C56.5393 11.8591 55.7225 11.6294 54.778 11.6294C53.8591 11.6294 53.0295 11.8591 52.2892 12.3186C51.5745 12.7525 51.0002 13.3779 50.5662 14.1947C50.1578 14.986 49.9536 15.9433 49.9536 17.0664V29.2805H46.3545V17.0664C46.3545 15.9177 46.1502 14.9478 45.7418 14.1565C45.3334 13.3651 44.7718 12.7525 44.0571 12.3186C43.3679 11.8591 42.5511 11.6294 41.6066 11.6294C40.6877 11.6294 39.8581 11.8591 39.1179 12.3186C38.4031 12.7525 37.8288 13.3779 37.3949 14.1947C36.9865 14.986 36.7822 15.9433 36.7822 17.0664V29.2805H33.2214Z" fill="black"/>
<path d="M67.0337 29.2805V8.64286H70.518V12.6632L69.9436 12.3186C70.4542 11.0168 71.271 10.0085 72.3941 9.29377C73.5428 8.55352 74.8829 8.1834 76.4145 8.1834C77.895 8.1834 79.2095 8.51523 80.3582 9.1789C81.5324 9.84258 82.4513 10.7615 83.115 11.9357C83.8042 13.1099 84.1488 14.4372 84.1488 15.9177V29.2805H80.5497V17.0664C80.5497 15.9177 80.3455 14.9478 79.937 14.1565C79.5286 13.3651 78.9415 12.7525 78.1757 12.3186C77.4355 11.8591 76.5804 11.6294 75.6104 11.6294C74.6404 11.6294 73.7725 11.8591 73.0068 12.3186C72.2665 12.7525 71.6794 13.3779 71.2455 14.1947C70.8115 14.986 70.5946 15.9433 70.5946 17.0664V29.2805H67.0337Z" fill="black"/>
<path d="M106.256 29.74C104.444 29.74 102.785 29.4082 101.279 28.7445C99.7725 28.0553 98.4962 27.1236 97.4497 25.9494C96.4031 24.7752 95.6501 23.4606 95.1906 22.0057L98.4452 20.6656C99.1344 22.5034 100.155 23.9201 101.508 24.9156C102.887 25.8856 104.495 26.3706 106.333 26.3706C107.456 26.3706 108.439 26.1919 109.281 25.8345C110.123 25.4772 110.774 24.9794 111.234 24.3413C111.719 23.6776 111.961 22.9118 111.961 22.0439C111.961 20.8442 111.617 19.8998 110.927 19.2106C110.264 18.4958 109.281 17.9598 107.979 17.6024L102.734 15.9943C100.666 15.3562 99.0833 14.3479 97.9857 12.9695C96.8881 11.5911 96.3393 10.0085 96.3393 8.22168C96.3393 6.66461 96.7094 5.29897 97.4497 4.12478C98.2155 2.92506 99.262 1.99337 100.589 1.3297C101.942 0.640498 103.474 0.295898 105.184 0.295898C106.894 0.295898 108.439 0.602209 109.817 1.21483C111.221 1.82745 112.408 2.65704 113.378 3.7036C114.348 4.72464 115.063 5.89883 115.522 7.22617L112.306 8.56628C111.693 6.95815 110.774 5.74567 109.549 4.92885C108.324 4.08649 106.881 3.66531 105.222 3.66531C104.201 3.66531 103.295 3.844 102.504 4.20136C101.738 4.53319 101.138 5.03095 100.704 5.69462C100.296 6.33277 100.092 7.09854 100.092 7.99195C100.092 9.03851 100.423 9.97021 101.087 10.787C101.751 11.6039 102.759 12.2292 104.112 12.6632L108.898 14.0799C111.144 14.7691 112.842 15.7518 113.99 17.0281C115.139 18.3044 115.713 19.887 115.713 21.7759C115.713 23.333 115.305 24.7114 114.488 25.9111C113.697 27.1108 112.587 28.0553 111.157 28.7445C109.753 29.4082 108.119 29.74 106.256 29.74Z" fill="black"/>
<path d="M120.748 37.7041C120.288 37.7041 119.829 37.6658 119.369 37.5892C118.91 37.5382 118.476 37.4233 118.068 37.2446V34.0666C118.348 34.0922 118.693 34.1432 119.101 34.2198C119.535 34.2964 119.957 34.3347 120.365 34.3347C121.565 34.3347 122.471 34.0666 123.083 33.5306C123.722 32.9945 124.321 32.0884 124.883 30.8121L126.185 27.7107L126.108 30.8121L117.302 8.64286H121.169L128.023 26.2557H126.874L133.689 8.64286H137.633L128.329 31.731C127.895 32.8286 127.334 33.8369 126.644 34.7558C125.981 35.6748 125.164 36.3895 124.194 36.9C123.224 37.4361 122.075 37.7041 120.748 37.7041Z" fill="black"/>
<path d="M139.652 29.2805V8.64286H143.137V12.6632L142.562 12.3186C143.073 11.0168 143.89 10.0085 145.013 9.29377C146.161 8.55352 147.502 8.1834 149.033 8.1834C150.514 8.1834 151.828 8.51523 152.977 9.1789C154.151 9.84258 155.07 10.7615 155.734 11.9357C156.423 13.1099 156.767 14.4372 156.767 15.9177V29.2805H153.168V17.0664C153.168 15.9177 152.964 14.9478 152.556 14.1565C152.147 13.3651 151.56 12.7525 150.794 12.3186C150.054 11.8591 149.199 11.6294 148.229 11.6294C147.259 11.6294 146.391 11.8591 145.625 12.3186C144.885 12.7525 144.298 13.3779 143.864 14.1947C143.43 14.986 143.213 15.9433 143.213 17.0664V29.2805H139.652Z" fill="black"/>
<path d="M160.714 29.2805V0.295898H164.275V20.1678L162.82 19.8232L173.771 8.64286H178.327L170.401 16.9515L178.863 29.2805H174.651L166.917 18.1002L169.138 17.9853L163.126 24.2647L164.275 21.6611V29.2805H160.714Z" fill="black"/>
<path d="M178.58 29.2805L188.803 0.755363H193.245L203.468 29.2805H199.448L197.112 22.58H184.936L182.601 29.2805H178.58ZM186.123 19.134H195.925L190.488 3.47387H191.56L186.123 19.134Z" fill="black"/>
<path d="M205.914 29.2805V0.755363H209.666V29.2805H205.914Z" fill="black"/>
<g clip-path="url(#clip0_5144_11786)">
<path d="M92.7242 14.6719H87.2725V20.4725H92.7242V14.6719Z" fill="#546FFF"/>
<path d="M92.7242 23.4795H87.2725V29.2801H92.7242V23.4795Z" fill="#546FFF"/>
<path d="M86.2772 10.378L90.9985 13.2783L93.7244 8.25484L89.003 5.35453L86.2772 10.378Z" fill="#546FFF"/>
</g>
<defs>
<clipPath id="clip0_5144_11786">
<rect width="7.44505" height="23.9305" fill="white" transform="translate(86.2759 5.34961)"/>
</clipPath>
</defs>
</svg>
