<svg width="24" height="25" viewBox="0 0 24 25" fill="none" xmlns="http://www.w3.org/2000/svg">
<path d="M12 22.8047C17.3552 22.8047 21.7272 18.5952 21.9877 13.3046C22.0013 13.0288 21.7761 12.8047 21.5 12.8047H12.5C12.2239 12.8047 12 12.5808 12 12.3047V3.30469C12 3.02855 11.7759 2.80339 11.5001 2.81697C6.20948 3.07745 2 7.44948 2 12.8047C2 18.3275 6.47715 22.8047 12 22.8047Z" stroke="#0E0F1D" stroke-width="1.5"/>
<path d="M21.9846 10.3046C21.7367 6.28466 18.52 3.06801 14.5001 2.82006C14.2245 2.80306 14 3.02855 14 3.30469V10.3047C14 10.5808 14.2239 10.8047 14.5 10.8047H21.5C21.7761 10.8047 22.0016 10.5802 21.9846 10.3046Z" stroke="#0E0F1D" stroke-width="1.5"/>
</svg>
