<svg width="24" height="25" viewBox="0 0 24 25" fill="none" xmlns="http://www.w3.org/2000/svg">
<path d="M12 15.8047C13.6569 15.8047 15 14.4615 15 12.8047C15 11.1478 13.6569 9.80469 12 9.80469C10.3431 9.80469 9 11.1478 9 12.8047C9 14.4615 10.3431 15.8047 12 15.8047Z" stroke="#0E0F1D" stroke-width="1.5" stroke-miterlimit="10" stroke-linecap="round" stroke-linejoin="round"/>
<path d="M2 13.6841V11.9241C2 10.8841 2.85 10.0241 3.9 10.0241C5.71 10.0241 6.45 8.74414 5.54 7.17414C5.02 6.27414 5.33 5.10414 6.24 4.58414L7.97 3.59414C8.76 3.12414 9.78 3.40414 10.25 4.19414L10.36 4.38414C11.26 5.95414 12.74 5.95414 13.65 4.38414L13.76 4.19414C14.23 3.40414 15.25 3.12414 16.04 3.59414L17.77 4.58414C18.68 5.10414 18.99 6.27414 18.47 7.17414C17.56 8.74414 18.3 10.0241 20.11 10.0241C21.15 10.0241 22.01 10.8741 22.01 11.9241V13.6841C22.01 14.7241 21.16 15.5841 20.11 15.5841C18.3 15.5841 17.56 16.8641 18.47 18.4341C18.99 19.3441 18.68 20.5041 17.77 21.0241L16.04 22.0141C15.25 22.4841 14.23 22.2041 13.76 21.4141L13.65 21.2241C12.75 19.6541 11.27 19.6541 10.36 21.2241L10.25 21.4141C9.78 22.2041 8.76 22.4841 7.97 22.0141L6.24 21.0241C5.33 20.5041 5.02 19.3341 5.54 18.4341C6.45 16.8641 5.71 15.5841 3.9 15.5841C2.85 15.5841 2 14.7241 2 13.6841Z" stroke="#0E0F1D" stroke-width="1.5" stroke-miterlimit="10" stroke-linecap="round" stroke-linejoin="round"/>
</svg>
