<svg width="71" height="22" viewBox="0 0 71 22" fill="none" xmlns="http://www.w3.org/2000/svg">
<g clip-path="url(#clip0_7833_8075)">
<path d="M24.3899 12.1333C23.7897 11.8005 23.4738 11.531 23.4738 11.1506C23.4738 10.6592 23.9003 10.358 24.5795 10.358C25.3693 10.358 26.0644 10.6909 26.0644 10.6909L26.6173 8.99485C26.6173 8.99485 26.1118 8.59858 24.6111 8.59858C22.526 8.59858 21.0727 9.80325 21.0727 11.4835C21.0727 12.4345 21.7519 13.1637 22.6523 13.6867C23.379 14.0989 23.6317 14.4 23.6317 14.828C23.6317 15.2877 23.2684 15.6523 22.5891 15.6523C21.5782 15.6523 20.6304 15.1292 20.6304 15.1292L20.0459 16.8252C20.0459 16.8252 20.9305 17.4117 22.3996 17.4117C24.5479 17.4117 26.0802 16.3497 26.0802 14.4476C26.1118 13.4014 25.3219 12.6723 24.3899 12.1333Z" fill="#96BF48"/>
<path d="M32.9517 8.56688C31.8933 8.56688 31.0719 9.07411 30.4243 9.83495L30.3927 9.8191L31.3089 5.0004H28.9078L26.5857 17.2532H28.971L29.7608 13.0686C30.0767 11.4835 30.8824 10.5165 31.6406 10.5165C32.1777 10.5165 32.383 10.8811 32.383 11.4042C32.383 11.7371 32.3514 12.1333 32.2725 12.4662L31.372 17.2691H33.7573L34.6893 12.3236C34.7999 11.8005 34.8631 11.1823 34.8631 10.7543C34.8947 9.37528 34.1996 8.56688 32.9517 8.56688Z" fill="#96BF48"/>
<path d="M40.2971 8.56688C37.4221 8.56688 35.5107 11.1664 35.5107 14.0672C35.5107 15.9217 36.6481 17.4276 38.7964 17.4276C41.624 17.4276 43.5196 14.8914 43.5196 11.9273C43.5354 10.1995 42.5402 8.56688 40.2971 8.56688ZM39.1282 15.573C38.3067 15.573 37.975 14.8756 37.975 14.0038C37.975 12.6247 38.6858 10.3897 39.9812 10.3897C40.8342 10.3897 41.1027 11.1189 41.1027 11.8322C41.1027 13.3222 40.3919 15.573 39.1282 15.573Z" fill="#96BF48"/>
<path d="M49.6487 8.56688C48.0375 8.56688 47.1213 9.99346 47.1213 9.99346H47.0897L47.2319 8.70953H45.1151C45.0046 9.58134 44.815 10.897 44.6254 11.8956L42.9668 20.6453H45.3521L46.0155 17.0947H46.0629C46.0629 17.0947 46.5526 17.4117 47.4688 17.4117C50.2806 17.4117 52.113 14.5268 52.113 11.6103C52.113 10.0093 51.4022 8.56688 49.6487 8.56688ZM47.374 15.6206C46.758 15.6206 46.3946 15.2718 46.3946 15.2718L46.7896 13.0369C47.0739 11.5469 47.8479 10.5482 48.6694 10.5482C49.396 10.5482 49.6171 11.2298 49.6171 11.8639C49.6171 13.4014 48.7009 15.6206 47.374 15.6206Z" fill="#96BF48"/>
<path d="M55.5249 5.12721C54.7667 5.12721 54.1506 5.72955 54.1506 6.5221C54.1506 7.23539 54.5929 7.72677 55.2722 7.72677H55.3038C56.0462 7.72677 56.6939 7.21954 56.7097 6.33189C56.7255 5.61859 56.2516 5.12721 55.5249 5.12721Z" fill="#96BF48"/>
<path d="M52.176 17.2532H54.5771L56.2041 8.75709H53.7873L52.176 17.2532Z" fill="#96BF48"/>
<path d="M62.2701 8.74124H60.6114L60.6904 8.34496C60.8326 7.52071 61.3065 6.79157 62.1121 6.79157C62.5386 6.79157 62.8703 6.91837 62.8703 6.91837L63.3442 5.04796C63.3442 5.04796 62.9335 4.8419 62.0489 4.8419C61.1959 4.8419 60.3587 5.07966 59.711 5.63445C58.8896 6.33189 58.5105 7.3305 58.3209 8.34496L58.2577 8.74124H57.152L56.8044 10.5482H57.9102L56.6465 17.2532H59.0318L60.2955 10.5482H61.9383L62.2701 8.74124Z" fill="#96BF48"/>
<path d="M68.02 8.75709C68.02 8.75709 66.5193 12.5296 65.8559 14.5902H65.8243C65.7769 13.9245 65.2398 8.75709 65.2398 8.75709H62.7282L64.1656 16.5558C64.1972 16.7301 64.1814 16.8411 64.1182 16.952C63.8339 17.491 63.3758 18.0141 62.8229 18.3945C62.3806 18.7274 61.8751 18.9334 61.4802 19.0761L62.1437 21.105C62.6334 20.994 63.6286 20.5978 64.4816 19.8052C65.5715 18.7749 66.5825 17.2057 67.6093 15.0499L70.5316 8.75709H68.02Z" fill="#96BF48"/>
<path d="M11.8158 3.24095C11.8158 3.24095 11.5946 3.30435 11.2313 3.41531C11.1681 3.20924 11.0734 2.97148 10.947 2.71786C10.5363 1.92531 9.92021 1.49734 9.19357 1.49734C9.14618 1.49734 9.09879 1.49734 9.0356 1.51319C9.0198 1.48149 8.98821 1.46564 8.97241 1.43393C8.65648 1.08521 8.24577 0.926703 7.75608 0.942554C6.80829 0.974256 5.86049 1.65585 5.10226 2.87637C4.56518 3.73233 4.15447 4.81019 4.04389 5.65029C2.95393 5.98317 2.19569 6.22093 2.1799 6.23678C1.62702 6.41114 1.61122 6.42699 1.54804 6.95008C1.50065 7.34635 0.0473633 18.5054 0.0473633 18.5054L11.9896 20.5819V3.2251C11.8948 3.2251 11.8474 3.24095 11.8158 3.24095ZM9.0514 4.0969C8.41953 4.28711 7.72449 4.50902 7.04523 4.71509C7.23479 3.97009 7.61391 3.2251 8.05621 2.73371C8.22998 2.55935 8.46692 2.35329 8.73547 2.22648C9.00401 2.79712 9.06719 3.57382 9.0514 4.0969ZM7.75608 1.59244C7.97723 1.59244 8.16679 1.64 8.32476 1.7351C8.07201 1.86191 7.81927 2.06797 7.58232 2.30574C6.98205 2.95563 6.52395 3.97009 6.33439 4.937C5.76571 5.11136 5.19704 5.28572 4.67575 5.44423C5.02328 3.92254 6.3028 1.62415 7.75608 1.59244ZM5.92368 10.3105C5.98687 11.3249 8.65648 11.5469 8.81445 13.9404C8.92502 15.8266 7.81927 17.1106 6.22381 17.2057C4.29664 17.3325 3.23827 16.1912 3.23827 16.1912L3.64898 14.4476C3.64898 14.4476 4.70735 15.256 5.56036 15.1926C6.11324 15.1609 6.31859 14.7012 6.3028 14.3842C6.22381 13.0527 4.04389 13.132 3.90172 10.9445C3.77535 9.10581 4.97589 7.25124 7.62971 7.07688C8.65648 7.01348 9.17777 7.2671 9.17777 7.2671L8.5775 9.54964C8.5775 9.54964 7.89825 9.23262 7.09262 9.29602C5.92368 9.37528 5.90788 10.1203 5.92368 10.3105ZM9.68326 3.90669C9.68326 3.43116 9.62007 2.74957 9.39892 2.17893C10.1256 2.32159 10.4731 3.12999 10.6311 3.62137C10.3467 3.70062 10.0308 3.79573 9.68326 3.90669Z" fill="#96BF48"/>
<path d="M12.3528 20.5502L17.3129 19.3138C17.3129 19.3138 15.1804 4.84189 15.1646 4.74679C15.1488 4.65168 15.0698 4.58828 14.9908 4.58828C14.9118 4.58828 13.5217 4.55658 13.5217 4.55658C13.5217 4.55658 12.6687 3.73233 12.3528 3.41531V20.5502Z" fill="#96BF48"/>
</g>
<defs>
<clipPath id="clip0_7833_8075">
<rect width="70.5" height="20.21" fill="white" transform="translate(0 0.895)"/>
</clipPath>
</defs>
</svg>
