<svg width="18" height="18" viewBox="0 0 18 18" fill="none" xmlns="http://www.w3.org/2000/svg">
<path d="M11.5427 3.9075L12.6002 6.02249C12.7427 6.31499 13.1252 6.59249 13.4477 6.65249L15.3602 6.96749C16.5827 7.16999 16.8677 8.05499 15.9902 8.93999L14.4977 10.4325C14.2502 10.68 14.1077 11.1675 14.1902 11.52L14.6177 13.365C14.9552 14.82 14.1752 15.39 12.8927 14.625L11.1002 13.56C10.7777 13.365 10.2377 13.365 9.91521 13.56L8.1227 14.625C6.8402 15.3825 6.06021 14.82 6.39771 13.365L6.82521 11.52C6.90771 11.175 6.76521 10.6875 6.51771 10.4325L5.02522 8.93999C4.14772 8.06249 4.43271 7.17749 5.65521 6.96749L7.5677 6.65249C7.8902 6.59999 8.27271 6.31499 8.41521 6.02249L9.47271 3.9075C10.0352 2.76 10.9652 2.76 11.5427 3.9075Z" stroke="url(#paint0_linear_6250_563)" stroke-width="1.125" stroke-linecap="round" stroke-linejoin="round"/>
<path d="M6 3.75H1.5" stroke="url(#paint1_linear_6250_563)" stroke-width="1.125" stroke-linecap="round" stroke-linejoin="round"/>
<path d="M3.75 14.25H1.5" stroke="url(#paint2_linear_6250_563)" stroke-width="1.125" stroke-linecap="round" stroke-linejoin="round"/>
<path d="M2.25 9H1.5" stroke="url(#paint3_linear_6250_563)" stroke-width="1.125" stroke-linecap="round" stroke-linejoin="round"/>
<defs>
<linearGradient id="paint0_linear_6250_563" x1="10.5077" y1="3.04687" x2="10.5077" y2="14.9652" gradientUnits="userSpaceOnUse">
<stop stop-color="#546FFF"/>
<stop offset="1" stop-color="#9747FF"/>
</linearGradient>
<linearGradient id="paint1_linear_6250_563" x1="3.75" y1="3.75" x2="3.75" y2="4.75" gradientUnits="userSpaceOnUse">
<stop stop-color="#546FFF"/>
<stop offset="1" stop-color="#9747FF"/>
</linearGradient>
<linearGradient id="paint2_linear_6250_563" x1="2.625" y1="14.25" x2="2.625" y2="15.25" gradientUnits="userSpaceOnUse">
<stop stop-color="#546FFF"/>
<stop offset="1" stop-color="#9747FF"/>
</linearGradient>
<linearGradient id="paint3_linear_6250_563" x1="1.875" y1="9" x2="1.875" y2="10" gradientUnits="userSpaceOnUse">
<stop stop-color="#546FFF"/>
<stop offset="1" stop-color="#9747FF"/>
</linearGradient>
</defs>
</svg>
