<svg width="14" height="14" viewBox="0 0 14 14" fill="none" xmlns="http://www.w3.org/2000/svg">
<mask id="path-1-inside-1_7450_2416" fill="white">
<path d="M7.58324 8.60352H6.99991C6.76074 8.60352 6.56241 8.40518 6.56241 8.16602C6.56241 7.92685 6.76074 7.72852 6.99991 7.72852H7.58324C7.98574 7.72852 8.31241 7.40185 8.31241 6.99935V1.60352H3.49991C2.81158 1.60352 2.18156 1.97684 1.84323 2.57767C1.72656 2.78767 1.45825 2.86353 1.24825 2.74686C1.03825 2.6302 0.962397 2.36185 1.07906 2.15185C1.56906 1.27685 2.49658 0.728516 3.49991 0.728516H8.74991C8.98908 0.728516 9.18741 0.926849 9.18741 1.16602V6.99935C9.18741 7.88602 8.46991 8.60352 7.58324 8.60352Z"/>
</mask>
<path d="M7.58324 8.60352H6.99991C6.76074 8.60352 6.56241 8.40518 6.56241 8.16602C6.56241 7.92685 6.76074 7.72852 6.99991 7.72852H7.58324C7.98574 7.72852 8.31241 7.40185 8.31241 6.99935V1.60352H3.49991C2.81158 1.60352 2.18156 1.97684 1.84323 2.57767C1.72656 2.78767 1.45825 2.86353 1.24825 2.74686C1.03825 2.6302 0.962397 2.36185 1.07906 2.15185C1.56906 1.27685 2.49658 0.728516 3.49991 0.728516H8.74991C8.98908 0.728516 9.18741 0.926849 9.18741 1.16602V6.99935C9.18741 7.88602 8.46991 8.60352 7.58324 8.60352Z" fill="#292D32"/>
<path d="M8.31241 1.60352H9.31241V0.603516H8.31241V1.60352ZM1.84323 2.57767L0.971865 2.087L0.969071 2.09203L1.84323 2.57767ZM1.07906 2.15185L0.206552 1.66324L0.204906 1.66621L1.07906 2.15185ZM7.58324 7.60352H6.99991V9.60352H7.58324V7.60352ZM6.99991 7.60352C7.31303 7.60352 7.56241 7.8529 7.56241 8.16602H5.56241C5.56241 8.95747 6.20846 9.60352 6.99991 9.60352V7.60352ZM7.56241 8.16602C7.56241 8.47913 7.31303 8.72852 6.99991 8.72852V6.72852C6.20846 6.72852 5.56241 7.37456 5.56241 8.16602H7.56241ZM6.99991 8.72852H7.58324V6.72852H6.99991V8.72852ZM7.58324 8.72852C8.53803 8.72852 9.31241 7.95413 9.31241 6.99935H7.31241C7.31241 6.84956 7.43346 6.72852 7.58324 6.72852V8.72852ZM9.31241 6.99935V1.60352H7.31241V6.99935H9.31241ZM8.31241 0.603516H3.49991V2.60352H8.31241V0.603516ZM3.49991 0.603516C2.44505 0.603516 1.48472 1.17627 0.971879 2.08701L2.71458 3.06834C2.8784 2.7774 3.1781 2.60352 3.49991 2.60352V0.603516ZM0.969071 2.09203C1.12219 1.81641 1.46395 1.72274 1.7339 1.8727L0.76261 3.62102C1.45255 4.00432 2.33093 3.75894 2.71739 3.06332L0.969071 2.09203ZM1.7339 1.8727C2.00955 2.02585 2.10317 2.36759 1.95322 2.63749L0.204906 1.66621C-0.178375 2.35611 0.0669543 3.23454 0.76261 3.62102L1.7339 1.8727ZM1.95157 2.64045C2.26625 2.07853 2.86165 1.72852 3.49991 1.72852V-0.271484C2.1315 -0.271484 0.871878 0.475174 0.206557 1.66325L1.95157 2.64045ZM3.49991 1.72852H8.74991V-0.271484H3.49991V1.72852ZM8.74991 1.72852C8.43679 1.72852 8.18741 1.47913 8.18741 1.16602H10.1874C10.1874 0.374564 9.54136 -0.271484 8.74991 -0.271484V1.72852ZM8.18741 1.16602V6.99935H10.1874V1.16602H8.18741ZM8.18741 6.99935C8.18741 7.33373 7.91763 7.60352 7.58324 7.60352V9.60352C9.0222 9.60352 10.1874 8.4383 10.1874 6.99935H8.18741Z" fill="white" mask="url(#path-1-inside-1_7450_2416)"/>
<mask id="path-3-inside-2_7450_2416" fill="white">
<path d="M11.0833 12.1035H10.5C10.2608 12.1035 10.0625 11.9052 10.0625 11.666C10.0625 11.2635 9.73579 10.9368 9.33329 10.9368C8.93079 10.9368 8.60413 11.2635 8.60413 11.666C8.60413 11.9052 8.40579 12.1035 8.16663 12.1035H5.83329C5.59413 12.1035 5.39579 11.9052 5.39579 11.666C5.39579 11.2635 5.06913 10.9368 4.66663 10.9368C4.26413 10.9368 3.93746 11.2635 3.93746 11.666C3.93746 11.9052 3.73913 12.1035 3.49996 12.1035H2.91663C1.70913 12.1035 0.729126 11.1235 0.729126 9.91602C0.729126 9.67685 0.927459 9.47852 1.16663 9.47852C1.40579 9.47852 1.60413 9.67685 1.60413 9.91602C1.60413 10.6393 2.19329 11.2285 2.91663 11.2285H3.12078C3.31328 10.5577 3.93163 10.0618 4.66663 10.0618C5.40163 10.0618 6.01997 10.5577 6.21247 11.2285H7.79328C7.98578 10.5577 8.60413 10.0618 9.33913 10.0618C10.0741 10.0618 10.6924 10.5577 10.8849 11.2285H11.0833C11.8066 11.2285 12.3958 10.6393 12.3958 9.91602V8.60352H11.0833C10.5233 8.60352 10.0625 8.14268 10.0625 7.58268V5.83268C10.0625 5.27268 10.5175 4.81185 11.0833 4.81185L10.4591 3.72102C10.3308 3.49352 10.0858 3.35352 9.82331 3.35352H9.18746V6.99935C9.18746 7.88602 8.46996 8.60352 7.58329 8.60352H6.99996C6.76079 8.60352 6.56246 8.40518 6.56246 8.16602C6.56246 7.92685 6.76079 7.72852 6.99996 7.72852H7.58329C7.98579 7.72852 8.31246 7.40185 8.31246 6.99935V2.91602C8.31246 2.67685 8.51079 2.47852 8.74996 2.47852H9.82331C10.4008 2.47852 10.9316 2.78769 11.2174 3.28936L12.215 5.03352C12.2908 5.16769 12.2908 5.33685 12.215 5.47102C12.1391 5.60519 11.9933 5.68685 11.8358 5.68685H11.0833C11.0016 5.68685 10.9375 5.75102 10.9375 5.83268V7.58268C10.9375 7.66435 11.0016 7.72852 11.0833 7.72852H12.8333C13.0725 7.72852 13.2708 7.92685 13.2708 8.16602V9.91602C13.2708 11.1235 12.2908 12.1035 11.0833 12.1035Z"/>
</mask>
<path d="M11.0833 12.1035H10.5C10.2608 12.1035 10.0625 11.9052 10.0625 11.666C10.0625 11.2635 9.73579 10.9368 9.33329 10.9368C8.93079 10.9368 8.60413 11.2635 8.60413 11.666C8.60413 11.9052 8.40579 12.1035 8.16663 12.1035H5.83329C5.59413 12.1035 5.39579 11.9052 5.39579 11.666C5.39579 11.2635 5.06913 10.9368 4.66663 10.9368C4.26413 10.9368 3.93746 11.2635 3.93746 11.666C3.93746 11.9052 3.73913 12.1035 3.49996 12.1035H2.91663C1.70913 12.1035 0.729126 11.1235 0.729126 9.91602C0.729126 9.67685 0.927459 9.47852 1.16663 9.47852C1.40579 9.47852 1.60413 9.67685 1.60413 9.91602C1.60413 10.6393 2.19329 11.2285 2.91663 11.2285H3.12078C3.31328 10.5577 3.93163 10.0618 4.66663 10.0618C5.40163 10.0618 6.01997 10.5577 6.21247 11.2285H7.79328C7.98578 10.5577 8.60413 10.0618 9.33913 10.0618C10.0741 10.0618 10.6924 10.5577 10.8849 11.2285H11.0833C11.8066 11.2285 12.3958 10.6393 12.3958 9.91602V8.60352H11.0833C10.5233 8.60352 10.0625 8.14268 10.0625 7.58268V5.83268C10.0625 5.27268 10.5175 4.81185 11.0833 4.81185L10.4591 3.72102C10.3308 3.49352 10.0858 3.35352 9.82331 3.35352H9.18746V6.99935C9.18746 7.88602 8.46996 8.60352 7.58329 8.60352H6.99996C6.76079 8.60352 6.56246 8.40518 6.56246 8.16602C6.56246 7.92685 6.76079 7.72852 6.99996 7.72852H7.58329C7.98579 7.72852 8.31246 7.40185 8.31246 6.99935V2.91602C8.31246 2.67685 8.51079 2.47852 8.74996 2.47852H9.82331C10.4008 2.47852 10.9316 2.78769 11.2174 3.28936L12.215 5.03352C12.2908 5.16769 12.2908 5.33685 12.215 5.47102C12.1391 5.60519 11.9933 5.68685 11.8358 5.68685H11.0833C11.0016 5.68685 10.9375 5.75102 10.9375 5.83268V7.58268C10.9375 7.66435 11.0016 7.72852 11.0833 7.72852H12.8333C13.0725 7.72852 13.2708 7.92685 13.2708 8.16602V9.91602C13.2708 11.1235 12.2908 12.1035 11.0833 12.1035Z" fill="#292D32"/>
<path d="M3.12078 11.2285V12.2285H3.87418L4.08199 11.5043L3.12078 11.2285ZM6.21247 11.2285L5.25127 11.5043L5.45907 12.2285H6.21247V11.2285ZM7.79328 11.2285V12.2285H8.54668L8.75449 11.5043L7.79328 11.2285ZM10.8849 11.2285L9.92374 11.5043L10.1315 12.2285H10.8849V11.2285ZM12.3958 8.60352H13.3958V7.60352H12.3958V8.60352ZM11.0833 4.81185V5.81185H12.8076L11.9512 4.31521L11.0833 4.81185ZM10.4591 3.72102L9.58813 4.21235L9.59117 4.21766L10.4591 3.72102ZM9.18746 3.35352V2.35352H8.18746V3.35352H9.18746ZM11.2174 3.28936L10.3486 3.78441L10.3494 3.78582L11.2174 3.28936ZM12.215 5.03352L13.0855 4.54145L13.083 4.53706L12.215 5.03352ZM11.0833 11.1035H10.5V13.1035H11.0833V11.1035ZM10.5 11.1035C10.8131 11.1035 11.0625 11.3529 11.0625 11.666H9.06246C9.06246 12.4575 9.70851 13.1035 10.5 13.1035V11.1035ZM11.0625 11.666C11.0625 10.7112 10.2881 9.93685 9.33329 9.93685V11.9368C9.18351 11.9368 9.06246 11.8158 9.06246 11.666H11.0625ZM9.33329 9.93685C8.37851 9.93685 7.60413 10.7112 7.60413 11.666H9.60413C9.60413 11.8158 9.48308 11.9368 9.33329 11.9368V9.93685ZM7.60413 11.666C7.60413 11.3529 7.85351 11.1035 8.16663 11.1035V13.1035C8.95808 13.1035 9.60413 12.4575 9.60413 11.666H7.60413ZM8.16663 11.1035H5.83329V13.1035H8.16663V11.1035ZM5.83329 11.1035C6.14641 11.1035 6.39579 11.3529 6.39579 11.666H4.39579C4.39579 12.4575 5.04184 13.1035 5.83329 13.1035V11.1035ZM6.39579 11.666C6.39579 10.7112 5.62141 9.93685 4.66663 9.93685V11.9368C4.51684 11.9368 4.39579 11.8158 4.39579 11.666H6.39579ZM4.66663 9.93685C3.71184 9.93685 2.93746 10.7112 2.93746 11.666H4.93746C4.93746 11.8158 4.81641 11.9368 4.66663 11.9368V9.93685ZM2.93746 11.666C2.93746 11.3529 3.18684 11.1035 3.49996 11.1035V13.1035C4.29141 13.1035 4.93746 12.4575 4.93746 11.666H2.93746ZM3.49996 11.1035H2.91663V13.1035H3.49996V11.1035ZM2.91663 11.1035C2.26141 11.1035 1.72913 10.5712 1.72913 9.91602H-0.270874C-0.270874 11.6758 1.15684 13.1035 2.91663 13.1035V11.1035ZM1.72913 9.91602C1.72913 10.2291 1.47974 10.4785 1.16663 10.4785V8.47852C0.375175 8.47852 -0.270874 9.12456 -0.270874 9.91602H1.72913ZM1.16663 10.4785C0.853508 10.4785 0.604126 10.2291 0.604126 9.91602H2.60413C2.60413 9.12456 1.95808 8.47852 1.16663 8.47852V10.4785ZM0.604126 9.91602C0.604126 11.1916 1.64101 12.2285 2.91663 12.2285V10.2285C2.74558 10.2285 2.60413 10.0871 2.60413 9.91602H0.604126ZM2.91663 12.2285H3.12078V10.2285H2.91663V12.2285ZM4.08199 11.5043C4.15579 11.2471 4.39321 11.0618 4.66663 11.0618V9.06185C3.47004 9.06185 2.47077 9.86822 2.15957 10.9527L4.08199 11.5043ZM4.66663 11.0618C4.94004 11.0618 5.17746 11.2471 5.25127 11.5043L7.17368 10.9527C6.86249 9.86822 5.86321 9.06185 4.66663 9.06185V11.0618ZM6.21247 12.2285H7.79328V10.2285H6.21247V12.2285ZM8.75449 11.5043C8.8283 11.2471 9.06572 11.0618 9.33913 11.0618V9.06185C8.14254 9.06185 7.14327 9.86822 6.83208 10.9527L8.75449 11.5043ZM9.33913 11.0618C9.61252 11.0618 9.84992 11.2471 9.92374 11.5043L11.8462 10.9527C11.535 9.86825 10.5357 9.06185 9.33913 9.06185V11.0618ZM10.8849 12.2285H11.0833V10.2285H10.8849V12.2285ZM11.0833 12.2285C12.3589 12.2285 13.3958 11.1916 13.3958 9.91602H11.3958C11.3958 10.0871 11.2543 10.2285 11.0833 10.2285V12.2285ZM13.3958 9.91602V8.60352H11.3958V9.91602H13.3958ZM12.3958 7.60352H11.0833V9.60352H12.3958V7.60352ZM11.0833 7.60352C11.0816 7.60352 11.0808 7.60334 11.0795 7.60276C11.0774 7.60188 11.0738 7.5998 11.07 7.59599C11.0662 7.59218 11.0641 7.58859 11.0632 7.58651C11.0626 7.58515 11.0625 7.58441 11.0625 7.58268H9.06246C9.06246 8.69497 9.97101 9.60352 11.0833 9.60352V7.60352ZM11.0625 7.58268V5.83268H9.06246V7.58268H11.0625ZM11.0625 5.83268C11.0625 5.82913 11.063 5.82741 11.0636 5.82594C11.0645 5.82383 11.0663 5.82088 11.0692 5.81798C11.0721 5.8151 11.0747 5.81358 11.0763 5.81292C11.0771 5.81255 11.0788 5.81185 11.0833 5.81185V3.81185C9.96146 3.81185 9.06246 4.72412 9.06246 5.83268H11.0625ZM11.9512 4.31521L11.3271 3.22438L9.59117 4.21766L10.2153 5.30849L11.9512 4.31521ZM11.3301 3.2297C11.0201 2.68007 10.4375 2.35352 9.82331 2.35352V4.35352C9.73407 4.35352 9.64152 4.30697 9.58814 4.21234L11.3301 3.2297ZM9.82331 2.35352H9.18746V4.35352H9.82331V2.35352ZM8.18746 3.35352V6.99935H10.1875V3.35352H8.18746ZM8.18746 6.99935C8.18746 7.33373 7.91767 7.60352 7.58329 7.60352V9.60352C9.02224 9.60352 10.1875 8.4383 10.1875 6.99935H8.18746ZM7.58329 7.60352H6.99996V9.60352H7.58329V7.60352ZM6.99996 7.60352C7.31308 7.60352 7.56246 7.8529 7.56246 8.16602H5.56246C5.56246 8.95747 6.20851 9.60352 6.99996 9.60352V7.60352ZM7.56246 8.16602C7.56246 8.47913 7.31308 8.72852 6.99996 8.72852V6.72852C6.20851 6.72852 5.56246 7.37456 5.56246 8.16602H7.56246ZM6.99996 8.72852H7.58329V6.72852H6.99996V8.72852ZM7.58329 8.72852C8.53808 8.72852 9.31246 7.95413 9.31246 6.99935H7.31246C7.31246 6.84956 7.43351 6.72852 7.58329 6.72852V8.72852ZM9.31246 6.99935V2.91602H7.31246V6.99935H9.31246ZM9.31246 2.91602C9.31246 3.22913 9.06308 3.47852 8.74996 3.47852V1.47852C7.95851 1.47852 7.31246 2.12456 7.31246 2.91602H9.31246ZM8.74996 3.47852H9.82331V1.47852H8.74996V3.47852ZM9.82331 3.47852C10.0407 3.47852 10.2402 3.59424 10.3486 3.78441L12.0863 2.79431C11.623 1.98114 10.7609 1.47852 9.82331 1.47852V3.47852ZM10.3494 3.78582L11.3469 5.52998L13.083 4.53706L12.0855 2.7929L10.3494 3.78582ZM11.3444 5.52558C11.2476 5.3544 11.2476 5.15013 11.3444 4.97896L13.0855 5.96308C13.3339 5.52357 13.3339 4.98097 13.0855 4.54146L11.3444 5.52558ZM11.3444 4.97896C11.4555 4.78244 11.6525 4.68685 11.8358 4.68685V6.68685C12.3341 6.68685 12.8228 6.42793 13.0855 5.96308L11.3444 4.97896ZM11.8358 4.68685H11.0833V6.68685H11.8358V4.68685ZM11.0833 4.68685C10.4493 4.68685 9.93746 5.19873 9.93746 5.83268H11.9375C11.9375 6.3033 11.5539 6.68685 11.0833 6.68685V4.68685ZM9.93746 5.83268V7.58268H11.9375V5.83268H9.93746ZM9.93746 7.58268C9.93746 8.21663 10.4493 8.72852 11.0833 8.72852V6.72852C11.5539 6.72852 11.9375 7.11206 11.9375 7.58268H9.93746ZM11.0833 8.72852H12.8333V6.72852H11.0833V8.72852ZM12.8333 8.72852C12.5202 8.72852 12.2708 8.47913 12.2708 8.16602H14.2708C14.2708 7.37456 13.6247 6.72852 12.8333 6.72852V8.72852ZM12.2708 8.16602V9.91602H14.2708V8.16602H12.2708ZM12.2708 9.91602C12.2708 10.5712 11.7385 11.1035 11.0833 11.1035V13.1035C12.8431 13.1035 14.2708 11.6758 14.2708 9.91602H12.2708Z" fill="white" mask="url(#path-3-inside-2_7450_2416)"/>
<mask id="path-5-inside-3_7450_2416" fill="white">
<path d="M4.66667 13.2708C3.78 13.2708 3.0625 12.5533 3.0625 11.6667C3.0625 10.78 3.78 10.0625 4.66667 10.0625C5.55333 10.0625 6.27083 10.78 6.27083 11.6667C6.27083 12.5533 5.55333 13.2708 4.66667 13.2708ZM4.66667 10.9375C4.26417 10.9375 3.9375 11.2642 3.9375 11.6667C3.9375 12.0692 4.26417 12.3958 4.66667 12.3958C5.06917 12.3958 5.39583 12.0692 5.39583 11.6667C5.39583 11.2642 5.06917 10.9375 4.66667 10.9375Z"/>
</mask>
<path d="M4.66667 13.2708C3.78 13.2708 3.0625 12.5533 3.0625 11.6667C3.0625 10.78 3.78 10.0625 4.66667 10.0625C5.55333 10.0625 6.27083 10.78 6.27083 11.6667C6.27083 12.5533 5.55333 13.2708 4.66667 13.2708ZM4.66667 10.9375C4.26417 10.9375 3.9375 11.2642 3.9375 11.6667C3.9375 12.0692 4.26417 12.3958 4.66667 12.3958C5.06917 12.3958 5.39583 12.0692 5.39583 11.6667C5.39583 11.2642 5.06917 10.9375 4.66667 10.9375Z" fill="#292D32"/>
<path d="M4.66667 12.2708C4.33228 12.2708 4.0625 12.001 4.0625 11.6667H2.0625C2.0625 13.1056 3.22772 14.2708 4.66667 14.2708V12.2708ZM4.0625 11.6667C4.0625 11.3323 4.33228 11.0625 4.66667 11.0625V9.0625C3.22772 9.0625 2.0625 10.2277 2.0625 11.6667H4.0625ZM4.66667 11.0625C5.00105 11.0625 5.27083 11.3323 5.27083 11.6667H7.27083C7.27083 10.2277 6.10562 9.0625 4.66667 9.0625V11.0625ZM5.27083 11.6667C5.27083 12.001 5.00105 12.2708 4.66667 12.2708V14.2708C6.10562 14.2708 7.27083 13.1056 7.27083 11.6667H5.27083ZM4.66667 9.9375C3.71188 9.9375 2.9375 10.7119 2.9375 11.6667H4.9375C4.9375 11.8165 4.81645 11.9375 4.66667 11.9375V9.9375ZM2.9375 11.6667C2.9375 12.6215 3.71188 13.3958 4.66667 13.3958V11.3958C4.81645 11.3958 4.9375 11.5169 4.9375 11.6667H2.9375ZM4.66667 13.3958C5.62145 13.3958 6.39583 12.6215 6.39583 11.6667H4.39583C4.39583 11.5169 4.51688 11.3958 4.66667 11.3958V13.3958ZM6.39583 11.6667C6.39583 10.7119 5.62145 9.9375 4.66667 9.9375V11.9375C4.51688 11.9375 4.39583 11.8165 4.39583 11.6667H6.39583Z" fill="white" mask="url(#path-5-inside-3_7450_2416)"/>
<mask id="path-7-inside-4_7450_2416" fill="white">
<path d="M9.33329 13.2708C8.44663 13.2708 7.72913 12.5533 7.72913 11.6667C7.72913 10.78 8.44663 10.0625 9.33329 10.0625C10.22 10.0625 10.9375 10.78 10.9375 11.6667C10.9375 12.5533 10.22 13.2708 9.33329 13.2708ZM9.33329 10.9375C8.93079 10.9375 8.60413 11.2642 8.60413 11.6667C8.60413 12.0692 8.93079 12.3958 9.33329 12.3958C9.73579 12.3958 10.0625 12.0692 10.0625 11.6667C10.0625 11.2642 9.73579 10.9375 9.33329 10.9375Z"/>
</mask>
<path d="M9.33329 13.2708C8.44663 13.2708 7.72913 12.5533 7.72913 11.6667C7.72913 10.78 8.44663 10.0625 9.33329 10.0625C10.22 10.0625 10.9375 10.78 10.9375 11.6667C10.9375 12.5533 10.22 13.2708 9.33329 13.2708ZM9.33329 10.9375C8.93079 10.9375 8.60413 11.2642 8.60413 11.6667C8.60413 12.0692 8.93079 12.3958 9.33329 12.3958C9.73579 12.3958 10.0625 12.0692 10.0625 11.6667C10.0625 11.2642 9.73579 10.9375 9.33329 10.9375Z" fill="#292D32"/>
<path d="M9.33329 12.2708C8.99891 12.2708 8.72913 12.001 8.72913 11.6667H6.72913C6.72913 13.1056 7.89434 14.2708 9.33329 14.2708V12.2708ZM8.72913 11.6667C8.72913 11.3323 8.99891 11.0625 9.33329 11.0625V9.0625C7.89434 9.0625 6.72913 10.2277 6.72913 11.6667H8.72913ZM9.33329 11.0625C9.66767 11.0625 9.93746 11.3323 9.93746 11.6667H11.9375C11.9375 10.2277 10.7722 9.0625 9.33329 9.0625V11.0625ZM9.93746 11.6667C9.93746 12.001 9.66767 12.2708 9.33329 12.2708V14.2708C10.7722 14.2708 11.9375 13.1056 11.9375 11.6667H9.93746ZM9.33329 9.9375C8.37851 9.9375 7.60413 10.7119 7.60413 11.6667H9.60413C9.60413 11.8165 9.48308 11.9375 9.33329 11.9375V9.9375ZM7.60413 11.6667C7.60413 12.6215 8.37851 13.3958 9.33329 13.3958V11.3958C9.48308 11.3958 9.60413 11.5169 9.60413 11.6667H7.60413ZM9.33329 13.3958C10.2881 13.3958 11.0625 12.6215 11.0625 11.6667H9.06246C9.06246 11.5169 9.18351 11.3958 9.33329 11.3958V13.3958ZM11.0625 11.6667C11.0625 10.7119 10.2881 9.9375 9.33329 9.9375V11.9375C9.18351 11.9375 9.06246 11.8165 9.06246 11.6667H11.0625Z" fill="white" mask="url(#path-7-inside-4_7450_2416)"/>
<mask id="path-9-inside-5_7450_2416" fill="white">
<path d="M12.8333 8.60417H11.0833C10.5233 8.60417 10.0625 8.14333 10.0625 7.58333V5.83333C10.0625 5.27333 10.5233 4.8125 11.0833 4.8125H11.8358C11.9933 4.8125 12.1392 4.89417 12.215 5.03417L13.2125 6.78417C13.2475 6.84834 13.2708 6.92417 13.2708 7V8.16667C13.2708 8.40583 13.0725 8.60417 12.8333 8.60417ZM11.0833 5.6875C11.0017 5.6875 10.9375 5.75167 10.9375 5.83333V7.58333C10.9375 7.665 11.0017 7.72917 11.0833 7.72917H12.3958V7.11667L11.5792 5.6875H11.0833Z"/>
</mask>
<path d="M12.8333 8.60417H11.0833C10.5233 8.60417 10.0625 8.14333 10.0625 7.58333V5.83333C10.0625 5.27333 10.5233 4.8125 11.0833 4.8125H11.8358C11.9933 4.8125 12.1392 4.89417 12.215 5.03417L13.2125 6.78417C13.2475 6.84834 13.2708 6.92417 13.2708 7V8.16667C13.2708 8.40583 13.0725 8.60417 12.8333 8.60417ZM11.0833 5.6875C11.0017 5.6875 10.9375 5.75167 10.9375 5.83333V7.58333C10.9375 7.665 11.0017 7.72917 11.0833 7.72917H12.3958V7.11667L11.5792 5.6875H11.0833Z" fill="#292D32"/>
<path d="M12.215 5.03417L11.3357 5.51045L11.3409 5.51997L11.3462 5.52938L12.215 5.03417ZM13.2125 6.78417L14.0904 6.30532L14.0859 6.2971L14.0813 6.28896L13.2125 6.78417ZM12.3958 7.72917V8.72917H13.3958V7.72917H12.3958ZM12.3958 7.11667H13.3958V6.85111L13.2641 6.62053L12.3958 7.11667ZM11.5792 5.6875L12.4474 5.19136L12.1595 4.6875H11.5792V5.6875ZM12.8333 7.60417H11.0833V9.60417H12.8333V7.60417ZM11.0833 7.60417C11.0816 7.60417 11.0809 7.604 11.0795 7.60342C11.0774 7.60253 11.0738 7.60045 11.07 7.59664C11.0662 7.59284 11.0641 7.58924 11.0633 7.58716C11.0627 7.5858 11.0625 7.58506 11.0625 7.58333H9.0625C9.0625 8.69562 9.97105 9.60417 11.0833 9.60417V7.60417ZM11.0625 7.58333V5.83333H9.0625V7.58333H11.0625ZM11.0625 5.83333C11.0625 5.83161 11.0627 5.83087 11.0633 5.8295C11.0641 5.82743 11.0662 5.82383 11.07 5.82002C11.0738 5.81622 11.0774 5.81414 11.0795 5.81325C11.0809 5.81267 11.0816 5.8125 11.0833 5.8125V3.8125C9.97105 3.8125 9.0625 4.72105 9.0625 5.83333H11.0625ZM11.0833 5.8125H11.8358V3.8125H11.0833V5.8125ZM11.8358 5.8125C11.6472 5.8125 11.4444 5.71107 11.3357 5.51045L13.0943 4.55789C12.834 4.07727 12.3395 3.8125 11.8358 3.8125V5.8125ZM11.3462 5.52938L12.3437 7.27938L14.0813 6.28896L13.0838 4.53896L11.3462 5.52938ZM12.3346 7.26302C12.3055 7.20966 12.2708 7.12202 12.2708 7H14.2708C14.2708 6.72632 14.1895 6.48701 14.0904 6.30532L12.3346 7.26302ZM12.2708 7V8.16667H14.2708V7H12.2708ZM12.2708 8.16667C12.2708 7.85355 12.5202 7.60417 12.8333 7.60417V9.60417C13.6248 9.60417 14.2708 8.95812 14.2708 8.16667H12.2708ZM11.0833 4.6875C10.4494 4.6875 9.9375 5.19938 9.9375 5.83333H11.9375C11.9375 6.30395 11.554 6.6875 11.0833 6.6875V4.6875ZM9.9375 5.83333V7.58333H11.9375V5.83333H9.9375ZM9.9375 7.58333C9.9375 8.21728 10.4494 8.72917 11.0833 8.72917V6.72917C11.554 6.72917 11.9375 7.11272 11.9375 7.58333H9.9375ZM11.0833 8.72917H12.3958V6.72917H11.0833V8.72917ZM13.3958 7.72917V7.11667H11.3958V7.72917H13.3958ZM13.2641 6.62053L12.4474 5.19136L10.7109 6.18364L11.5276 7.61282L13.2641 6.62053ZM11.5792 4.6875H11.0833V6.6875H11.5792V4.6875Z" fill="white" mask="url(#path-9-inside-5_7450_2416)"/>
<mask id="path-11-inside-6_7450_2416" fill="white">
<path d="M4.66663 5.10352H1.16663C0.927459 5.10352 0.729126 4.90518 0.729126 4.66602C0.729126 4.42685 0.927459 4.22852 1.16663 4.22852H4.66663C4.90579 4.22852 5.10413 4.42685 5.10413 4.66602C5.10413 4.90518 4.90579 5.10352 4.66663 5.10352Z"/>
</mask>
<path d="M4.66663 5.10352H1.16663C0.927459 5.10352 0.729126 4.90518 0.729126 4.66602C0.729126 4.42685 0.927459 4.22852 1.16663 4.22852H4.66663C4.90579 4.22852 5.10413 4.42685 5.10413 4.66602C5.10413 4.90518 4.90579 5.10352 4.66663 5.10352Z" fill="white"/>
<path d="M4.66663 4.10352H1.16663V6.10352H4.66663V4.10352ZM1.16663 4.10352C1.47974 4.10352 1.72913 4.3529 1.72913 4.66602H-0.270874C-0.270874 5.45747 0.375175 6.10352 1.16663 6.10352V4.10352ZM1.72913 4.66602C1.72913 4.97913 1.47974 5.22852 1.16663 5.22852V3.22852C0.375175 3.22852 -0.270874 3.87456 -0.270874 4.66602H1.72913ZM1.16663 5.22852H4.66663V3.22852H1.16663V5.22852ZM4.66663 5.22852C4.35351 5.22852 4.10413 4.97913 4.10413 4.66602H6.10413C6.10413 3.87456 5.45808 3.22852 4.66663 3.22852V5.22852ZM4.10413 4.66602C4.10413 4.3529 4.35351 4.10352 4.66663 4.10352V6.10352C5.45808 6.10352 6.10413 5.45747 6.10413 4.66602H4.10413Z" fill="white" mask="url(#path-11-inside-6_7450_2416)"/>
<mask id="path-13-inside-7_7450_2416" fill="white">
<path d="M3.49996 6.85352H1.16663C0.927459 6.85352 0.729126 6.65518 0.729126 6.41602C0.729126 6.17685 0.927459 5.97852 1.16663 5.97852H3.49996C3.73913 5.97852 3.93746 6.17685 3.93746 6.41602C3.93746 6.65518 3.73913 6.85352 3.49996 6.85352Z"/>
</mask>
<path d="M3.49996 6.85352H1.16663C0.927459 6.85352 0.729126 6.65518 0.729126 6.41602C0.729126 6.17685 0.927459 5.97852 1.16663 5.97852H3.49996C3.73913 5.97852 3.93746 6.17685 3.93746 6.41602C3.93746 6.65518 3.73913 6.85352 3.49996 6.85352Z" fill="#292D32"/>
<path d="M3.49996 5.85352H1.16663V7.85352H3.49996V5.85352ZM1.16663 5.85352C1.47974 5.85352 1.72913 6.1029 1.72913 6.41602H-0.270874C-0.270874 7.20747 0.375175 7.85352 1.16663 7.85352V5.85352ZM1.72913 6.41602C1.72913 6.72913 1.47974 6.97852 1.16663 6.97852V4.97852C0.375175 4.97852 -0.270874 5.62456 -0.270874 6.41602H1.72913ZM1.16663 6.97852H3.49996V4.97852H1.16663V6.97852ZM3.49996 6.97852C3.18684 6.97852 2.93746 6.72913 2.93746 6.41602H4.93746C4.93746 5.62456 4.29141 4.97852 3.49996 4.97852V6.97852ZM2.93746 6.41602C2.93746 6.1029 3.18684 5.85352 3.49996 5.85352V7.85352C4.29141 7.85352 4.93746 7.20747 4.93746 6.41602H2.93746Z" fill="white" mask="url(#path-13-inside-7_7450_2416)"/>
<mask id="path-15-inside-8_7450_2416" fill="white">
<path d="M2.33329 8.60352H1.16663C0.927459 8.60352 0.729126 8.40518 0.729126 8.16602C0.729126 7.92685 0.927459 7.72852 1.16663 7.72852H2.33329C2.57246 7.72852 2.77079 7.92685 2.77079 8.16602C2.77079 8.40518 2.57246 8.60352 2.33329 8.60352Z"/>
</mask>
<path d="M2.33329 8.60352H1.16663C0.927459 8.60352 0.729126 8.40518 0.729126 8.16602C0.729126 7.92685 0.927459 7.72852 1.16663 7.72852H2.33329C2.57246 7.72852 2.77079 7.92685 2.77079 8.16602C2.77079 8.40518 2.57246 8.60352 2.33329 8.60352Z" fill="#292D32"/>
<path d="M2.33329 7.60352H1.16663V9.60352H2.33329V7.60352ZM1.16663 7.60352C1.47974 7.60352 1.72913 7.8529 1.72913 8.16602H-0.270874C-0.270874 8.95747 0.375174 9.60352 1.16663 9.60352V7.60352ZM1.72913 8.16602C1.72913 8.47913 1.47974 8.72852 1.16663 8.72852V6.72852C0.375174 6.72852 -0.270874 7.37456 -0.270874 8.16602H1.72913ZM1.16663 8.72852H2.33329V6.72852H1.16663V8.72852ZM2.33329 8.72852C2.02017 8.72852 1.77079 8.47913 1.77079 8.16602H3.77079C3.77079 7.37456 3.12474 6.72852 2.33329 6.72852V8.72852ZM1.77079 8.16602C1.77079 7.8529 2.02017 7.60352 2.33329 7.60352V9.60352C3.12474 9.60352 3.77079 8.95747 3.77079 8.16602H1.77079Z" fill="white" mask="url(#path-15-inside-8_7450_2416)"/>
</svg>
