<svg width="21" height="21" viewBox="0 0 21 21" fill="none" xmlns="http://www.w3.org/2000/svg">
<g clip-path="url(#clip0_5153_19707)">
<path d="M18.4479 6.86061C19.2613 6.28311 19.9454 5.56227 20.5029 4.73227V4.73144C19.7588 5.05727 18.9671 5.27394 18.1404 5.37894C18.9904 4.87144 19.6396 4.07394 19.9446 3.11311C19.1521 3.58561 18.2771 3.91894 17.3446 4.10561C16.5921 3.30394 15.5196 2.80811 14.3496 2.80811C12.0796 2.80811 10.2521 4.65061 10.2521 6.90894C10.2521 7.23394 10.2796 7.54644 10.3471 7.84394C6.93876 7.67727 3.9221 6.04394 1.89543 3.55477C1.5421 4.16894 1.33376 4.87144 1.33376 5.62727C1.33376 7.04727 2.0646 8.30561 3.15543 9.03477C2.49626 9.02227 1.85043 8.83061 1.30293 8.52977V8.57477C1.30293 10.5673 2.72376 12.2223 4.58793 12.6039C4.25376 12.6956 3.89043 12.7389 3.51293 12.7389C3.25043 12.7389 2.98543 12.7239 2.7371 12.6689C3.26793 14.2923 4.77626 15.4864 6.56793 15.5256C5.17293 16.6164 3.40126 17.2739 1.48376 17.2739C1.14793 17.2739 0.82543 17.2589 0.50293 17.2181C2.3196 18.3889 4.47126 19.0581 6.79293 19.0581C14.0288 19.0581 18.7446 13.0214 18.4479 6.86061Z" fill="#FAFAFA"/>
</g>
<defs>
<clipPath id="clip0_5153_19707">
<rect width="20" height="20" fill="white" transform="translate(0.50293 0.933105)"/>
</clipPath>
</defs>
</svg>
