<svg width="54" height="44" viewBox="0 0 54 44" fill="none" xmlns="http://www.w3.org/2000/svg">
<path d="M16.3605 38.1109C16.7117 37.4727 17.0439 36.8762 17.3686 36.2798C17.4479 36.1317 17.5385 36.1089 17.6971 36.162C19.415 36.7433 20.5477 38.3958 20.4609 40.204C20.3778 41.9705 19.0903 43.4825 17.3271 43.8927C15.5865 44.2954 13.6873 43.3533 12.9247 41.7578C12.3734 40.6067 12.4376 39.4709 12.8076 38.2932C13.4646 36.1962 14.4802 34.3044 15.9339 32.6633C17.3724 31.0374 19.0865 29.7837 21.0725 28.9062C21.1745 28.8606 21.2726 28.8074 21.4048 28.7429C20.9404 28.5111 20.4949 28.325 20.0833 28.0743C19.3546 27.6298 18.641 27.1587 17.9312 26.6839C17.7953 26.5927 17.7084 26.5585 17.5498 26.6535C14.4878 28.5263 12.1356 31.064 10.5309 34.2892C9.54923 36.2608 8.94512 38.3464 8.70348 40.5421C8.49582 42.4188 6.75147 43.9421 4.87119 43.9839C2.97203 44.0257 1.3183 42.7037 0.884095 40.903C0.291316 38.4224 2.17159 35.9835 4.70506 35.9987C5.13548 35.9987 5.56591 36.1089 5.99256 36.181C6.05297 36.1924 6.14736 36.314 6.13226 36.3634C5.97746 37.0244 5.80755 37.6816 5.65275 38.2894C5.26008 38.2476 4.88629 38.1527 4.52383 38.183C3.62522 38.2552 2.90407 39.1328 2.94183 40.0483C2.97958 40.9904 3.77625 41.7806 4.72016 41.811C5.61499 41.8414 6.45696 41.0892 6.56268 40.1851C6.87229 37.541 7.63497 35.0376 8.91869 32.7051C9.30759 31.9985 9.73046 31.3071 10.1533 30.5853C6.15491 26.1444 4.08963 20.9096 4.01411 14.8618H6.18134C6.24553 20.203 8.03897 24.8566 11.5088 28.834C12.0261 28.3326 12.5093 27.8387 13.0153 27.3753C15.7791 24.8262 18.9808 23.1319 22.6545 22.338C24.4971 21.9391 26.3585 21.7719 28.2312 21.8935C30.7382 22.0569 33.1546 22.6191 35.4502 23.6714C35.9599 23.9031 35.9637 23.8993 36.3488 23.4814C37.4098 22.3304 38.214 21.016 38.7841 19.5572C39.4751 17.7869 39.7658 15.9483 39.6299 14.0526C39.4147 11.0857 38.3084 8.49489 36.2998 6.31054C34.1174 3.92865 31.4027 2.58005 28.2085 2.24955C25.9733 2.01782 23.8137 2.38251 21.7786 3.33983C18.5277 4.87077 16.2661 7.33623 15.0655 10.7438C14.0083 13.7449 14.1102 16.746 15.2882 19.694C15.6356 20.5677 16.1302 21.3806 16.572 22.2544C16.0169 22.5773 15.4015 22.9344 14.7861 23.2915C11.5503 18.8392 10.7612 11.1009 15.73 5.25825C20.8875 -0.80474 29.7603 -1.74686 35.9902 3.07011C38.2102 4.78719 39.8376 6.96395 40.8419 9.59656C41.8424 12.2216 42.0727 14.9226 41.5592 17.6806C41.042 20.4499 39.8187 22.8774 37.9195 25.001C39.611 26.0685 41.0911 27.3411 42.4314 28.834C45.9164 24.8186 47.6834 20.184 47.7589 14.8732H49.9223C49.8506 20.8868 47.8004 26.1026 43.8284 30.5435C44.2626 31.2691 44.7119 31.9643 45.1046 32.6899C46.1844 34.6729 46.9169 36.7851 47.2831 39.0188C47.3587 39.4785 47.4002 39.9495 47.4946 40.4054C47.6607 41.2031 48.4385 41.8224 49.2427 41.8224C50.0847 41.8224 50.836 41.2183 51.0248 40.3712C51.1758 39.6912 50.9644 39.1062 50.466 38.6503C49.9488 38.1792 49.3371 38.0273 48.6575 38.2818C48.5706 38.316 48.4763 38.3388 48.3894 38.3654C48.2195 37.693 48.0458 37.0472 47.891 36.3938C47.8797 36.3368 47.9514 36.2152 48.0118 36.1962C50.4056 35.4251 52.8032 36.9408 53.1732 39.3379C53.5054 41.4653 52.2406 43.3685 50.1942 43.8813C47.8608 44.4702 45.5463 42.7987 45.2972 40.3902C45.097 38.4452 44.5496 36.5875 43.7378 34.8134C42.8392 32.8532 41.6423 31.0982 40.1321 29.5672C39.0371 28.4541 37.8214 27.4854 36.4848 26.6763C36.3224 26.5775 36.2242 26.5927 36.0808 26.7029C34.6649 27.8083 33.1056 28.6441 31.3876 29.1683C30.085 29.5634 28.7522 29.8179 27.3817 29.8141C24.565 29.8141 21.9749 30.5473 19.6793 32.2112C17.8557 33.5294 16.4323 35.2009 15.5299 37.2789C15.1901 38.0615 14.922 38.882 14.7106 39.7102C14.4953 40.5535 15.0315 41.3855 15.8923 41.7084C16.6663 42.0009 17.5914 41.6666 18.0218 40.9524C18.7618 39.7254 17.901 38.3274 16.6965 38.1868C16.6097 38.1754 16.5266 38.1565 16.3643 38.1261L16.3605 38.1109ZM34.0759 25.4302C29.3526 23.5498 24.667 23.546 19.9436 25.434C23.9269 28.3098 29.9113 28.4352 34.0759 25.4302Z" fill="white"/>
<path d="M37.6061 38.0121C37.1682 38.2172 36.7453 38.3388 36.4168 38.5819C35.7523 39.072 35.5635 39.9229 35.8731 40.6827C36.1563 41.3703 36.9529 41.8755 37.659 41.811C38.4821 41.735 39.173 41.1614 39.3052 40.356C39.3618 39.9951 39.3203 39.5962 39.2221 39.2391C38.686 37.2675 37.7458 35.5162 36.3639 34.0043C35.3105 32.8494 34.091 31.9149 32.7053 31.2007C32.6374 31.1665 32.5732 31.1285 32.5052 31.0868C33.2981 30.7259 34.0721 30.365 34.8575 30.0193C34.9216 29.9889 35.0425 30.0307 35.1142 30.0763C36.8963 31.2577 38.3688 32.7507 39.5166 34.5627C40.3964 35.9569 41.0307 37.4575 41.4233 39.0644C41.9746 41.3285 40.3926 43.6496 38.0856 43.9345C35.9071 44.2043 34.0004 42.7987 33.619 40.6371C33.2792 38.7339 34.495 36.7357 36.3413 36.1772C36.4244 36.1507 36.5867 36.1848 36.6207 36.2456C36.9681 36.842 37.3003 37.4461 37.6137 38.0121H37.6061Z" fill="white"/>
</svg>
